<svg class="main-svg" xmlns="http://www.w3.org/2000/svg" xmlns:xlink="http://www.w3.org/1999/xlink" width="700" height="500" style="" viewBox="0 0 700 500"><rect x="0" y="0" width="700" height="500" style="fill: rgb(255, 255, 255); fill-opacity: 1;"/><defs id="defs-34a387"><g class="clips"/><g class="gradients"/></defs><g class="bglayer"/><g class="layer-below"><g class="imagelayer"/><g class="shapelayer"/></g><g class="cartesianlayer"/><g class="polarlayer"/><g class="ternarylayer"/><g class="geolayer"/><g class="funnelarealayer"/><g class="pielayer"/><g class="treemaplayer"/><g class="sunburstlayer"><g class="trace sunburst" stroke-linejoin="round" style="opacity: 1;"><g class="slice"><path class="surface" d="M350,240A0,0 0,1,0 350,240A0,0 0,1,0 350,240ZM440,240A90,90 0,1,1 260,240A90,90 0,1,1 440,240.00000000000003Z" style="pointer-events: all; stroke-width: 1; fill: rgb(0, 0, 0); fill-opacity: 0; stroke: rgb(255, 255, 255); stroke-opacity: 1;"/><g class="slicetext"><text data-notex="1" class="slicetext" text-anchor="middle" x="0" y="0" style="font-family: 'Open Sans', verdana, arial, sans-serif; font-size: 12px; fill: rgb(42, 63, 95); fill-opacity: 1; white-space: pre;" transform="translate(349.96875,244.796875)">source</text></g></g><g class="slice"><path class="surface" d="M440,240L530,240A180,180 0,0,0 333.59083591191785,60.74950674006391L341.7954179559589,150.37475337003195A90,90 0,0,1 440,240Z" style="pointer-events: all; stroke-width: 1; fill: rgb(99, 110, 250); fill-opacity: 1; stroke: rgb(255, 255, 255); stroke-opacity: 1; opacity: 0.7;"/><g class="slicetext"><text data-notex="1" class="slicetext" text-anchor="middle" x="0" y="0" style="font-family: 'Open Sans', verdana, arial, sans-serif; font-size: 12px; fill: rgb(255, 255, 255); fill-opacity: 1; white-space: pre;" transform="translate(441.4027564526785,145.08120957094536)">Android</text></g></g><g class="slice"><path class="surface" d="M341.7954179559589,150.37475337003195L333.59083591191785,60.74950674006391A180,180 0,0,0 170.08917544995765,245.6652634293455L260.04458772497884,242.83263171467274A90,90 0,0,1 341.7954179559589,150.37475337003195Z" style="pointer-events: all; stroke-width: 1; fill: rgb(239, 85, 59); fill-opacity: 1; stroke: rgb(255, 255, 255); stroke-opacity: 1; opacity: 0.7;"/><g class="slicetext"><text data-notex="1" class="slicetext" text-anchor="middle" x="0" y="0" style="font-family: 'Open Sans', verdana, arial, sans-serif; font-size: 12px; fill: rgb(68, 68, 68); fill-opacity: 1; white-space: pre;" transform="translate(248.83313752397953,155.37323221410017)">iPhone</text></g></g><g class="slice"><path class="surface" d="M260.04458772497884,242.83263171467274L170.08917544995765,245.6652634293455A180,180 0,0,0 306.7962329656165,414.7381884821939L328.3981164828083,327.36909424109695A90,90 0,0,1 260.04458772497884,242.83263171467274Z" style="pointer-events: all; stroke-width: 1; fill: rgb(0, 204, 150); fill-opacity: 1; stroke: rgb(255, 255, 255); stroke-opacity: 1; opacity: 0.7;"/><g class="slicetext"><text data-notex="1" class="slicetext" text-anchor="middle" x="0" y="0" style="font-family: 'Open Sans', verdana, arial, sans-serif; font-size: 12px; fill: rgb(68, 68, 68); fill-opacity: 1; white-space: pre;" transform="translate(236.78901243016304,332.0612846674963)rotate(51.042084168336714)">Twitter Web App</text></g></g><g class="slice"><path class="surface" d="M328.3981164828083,327.36909424109695L306.7962329656165,414.7381884821939A180,180 0,0,0 396.4962029089159,413.891066806357L373.2481014544579,326.9455334031785A90,90 0,0,1 328.3981164828083,327.36909424109695Z" style="pointer-events: all; stroke-width: 1; fill: rgb(171, 99, 250); fill-opacity: 1; stroke: rgb(255, 255, 255); stroke-opacity: 1; opacity: 0.7;"/><g class="slicetext"><text data-notex="1" class="slicetext" text-anchor="middle" x="0" y="0" style="font-family: 'Open Sans', verdana, arial, sans-serif; font-size: 12px; fill: rgb(68, 68, 68); fill-opacity: 1; white-space: pre;" transform="translate(347.5125634749494,375.2702097773309)scale(0.7848345443605429)rotate(89.4589178356714)">Twitter Web Client</text></g></g><g class="slice"><path class="surface" d="M373.2481014544579,326.9455334031785L396.4962029089159,413.891066806357A180,180 0,0,0 436.3778206132699,397.92046132816915L393.1889103066349,318.9602306640846A90,90 0,0,1 373.2481014544579,326.9455334031785Z" style="pointer-events: all; stroke-width: 1; fill: rgb(255, 161, 90); fill-opacity: 1; stroke: rgb(255, 255, 255); stroke-opacity: 1; opacity: 0.7;"/><g class="slicetext"><text data-notex="1" class="slicetext" text-anchor="middle" x="0" y="0" style="font-family: 'Open Sans', verdana, arial, sans-serif; font-size: 12px; fill: rgb(68, 68, 68); fill-opacity: 1; white-space: pre;" transform="translate(409.78120973367214,394.0818445497356)">iPad</text></g></g><g class="slice"><path class="surface" d="M393.1889103066349,318.9602306640846L436.3778206132699,397.92046132816915A180,180 0,0,0 462.73372416806615,380.32500645002085L406.3668620840331,310.1625032250104A90,90 0,0,1 393.1889103066349,318.9602306640846Z" style="pointer-events: all; stroke-width: 1; fill: rgb(25, 211, 243); fill-opacity: 1; stroke: rgb(255, 255, 255); stroke-opacity: 1; opacity: 0.7;"/><g class="slicetext"><text data-notex="1" class="slicetext" text-anchor="middle" x="0" y="0" style="font-family: 'Open Sans', verdana, arial, sans-serif; font-size: 12px; fill: rgb(68, 68, 68); fill-opacity: 1; white-space: pre;" transform="translate(421.1837046376663,354.71620986531843)scale(0.9365952818762837)rotate(56.27254509018036)">WordPress.com</text></g></g><g class="slice"><path class="surface" d="M406.3668620840331,310.1625032250104L462.73372416806615,380.32500645002085A180,180 0,0,0 482.5716005446842,361.7570151121515L416.2858002723421,300.87850755607576A90,90 0,0,1 406.3668620840331,310.1625032250104Z" style="pointer-events: all; stroke-width: 1; fill: rgb(255, 102, 146); fill-opacity: 1; stroke: rgb(255, 255, 255); stroke-opacity: 1; opacity: 0.7;"/><g class="slicetext"><text data-notex="1" class="slicetext" text-anchor="middle" x="0" y="0" style="font-family: 'Open Sans', verdana, arial, sans-serif; font-size: 12px; fill: rgb(68, 68, 68); fill-opacity: 1; white-space: pre;" transform="translate(444.06673015157304,347.51967138126736)rotate(46.89378757515033)">TweetDeck</text></g></g><g class="slice"><path class="surface" d="M416.2858002723421,300.87850755607576L482.5716005446842,361.7570151121515A180,180 0,0,0 498.11233176430073,342.2875221096968L424.05616588215037,291.14376105484837A90,90 0,0,1 416.2858002723421,300.87850755607576Z" style="pointer-events: all; stroke-width: 1; fill: rgb(182, 232, 128); fill-opacity: 1; stroke: rgb(255, 255, 255); stroke-opacity: 1; opacity: 0.7;"/><g class="slicetext"><text data-notex="1" class="slicetext" text-anchor="middle" x="0" y="0" style="font-family: 'Open Sans', verdana, arial, sans-serif; font-size: 12px; fill: rgb(68, 68, 68); fill-opacity: 1; white-space: pre;" transform="translate(456.22003193639426,330.4424937147063)scale(0.9216370286463006)rotate(38.59719438877755)">Hootsuite Inc.</text></g></g><g class="slice"><path class="surface" d="M424.05616588215037,291.14376105484837L498.11233176430073,342.2875221096968A180,180 0,0,0 505.41024618266147,330.8166030054228L427.70512309133073,285.4083015027114A90,90 0,0,1 424.05616588215037,291.14376105484837Z" style="pointer-events: all; stroke-width: 1; fill: rgb(255, 151, 255); fill-opacity: 1; stroke: rgb(255, 255, 255); stroke-opacity: 1; opacity: 0.7;"/><g class="slicetext"><text data-notex="1" class="slicetext" text-anchor="middle" x="0" y="0" style="font-family: 'Open Sans', verdana, arial, sans-serif; font-size: 12px; fill: rgb(68, 68, 68); fill-opacity: 1; white-space: pre;" transform="translate(481.3768331570889,327.496102012773)scale(0.6882269141993524)rotate(32.464929859719405)">Instagram</text></g></g><g class="slice"><path class="surface" d="M427.70512309133073,285.4083015027114L505.41024618266147,330.8166030054228A180,180 0,0,0 508.7291305867017,324.8826431208984L429.36456529335084,282.44132156044924A90,90 0,0,1 427.70512309133073,285.4083015027114Z" style="pointer-events: all; stroke-width: 1; fill: rgb(254, 203, 82); fill-opacity: 1; stroke: rgb(255, 255, 255); stroke-opacity: 1; opacity: 0.7;"/><g class="slicetext"><text data-notex="1" class="slicetext" text-anchor="middle" x="0" y="0" style="font-family: 'Open Sans', verdana, arial, sans-serif; font-size: 12px; fill: rgb(68, 68, 68); fill-opacity: 1; white-space: pre;" transform="translate(499.5339015692542,325.9364821582815)scale(0.41877272843517593)rotate(29.218436873747464)">IFTTT</text></g></g><g class="slice"><path class="surface" d="M429.36456529335084,282.44132156044924L508.7291305867017,324.8826431208984A180,180 0,0,0 511.82154735321,318.8275764705019L430.910773676605,279.41378823525093A90,90 0,0,1 429.36456529335084,282.44132156044924Z" style="pointer-events: all; stroke-width: 1; fill: rgb(198, 202, 253); fill-opacity: 1; stroke: rgb(255, 255, 255); stroke-opacity: 1; opacity: 0.7;"/><g class="slicetext"><text data-notex="1" class="slicetext" text-anchor="middle" x="0" y="0" style="font-family: 'Open Sans', verdana, arial, sans-serif; font-size: 12px; fill: rgb(68, 68, 68); fill-opacity: 1; white-space: pre;" transform="translate(495.541803464938,316.361072353914)scale(0.3769983490647856)rotate(27.054108216432894)">Sprout Social</text></g></g><g class="slice"><path class="surface" d="M430.910773676605,279.41378823525093L511.82154735321,318.8275764705019A180,180 0,0,0 513.7551508609498,314.7278433149758L431.8775754304749,277.36392165748794A90,90 0,0,1 430.910773676605,279.41378823525093Z" style="pointer-events: all; stroke-width: 1; fill: rgb(247, 167, 153); fill-opacity: 1; stroke: rgb(255, 255, 255); stroke-opacity: 1; opacity: 0.7;"/><g class="slicetext"><text data-notex="1" class="slicetext" text-anchor="middle" x="0" y="0" style="font-family: 'Open Sans', verdana, arial, sans-serif; font-size: 12px; fill: rgb(68, 68, 68); fill-opacity: 1; white-space: pre;" transform="translate(501.1653989834665,312.6892461054141)scale(0.26272568092737564)rotate(25.250501002004057)">Echobox Social</text></g></g><g class="slice"><path class="surface" d="M431.8775754304749,277.36392165748794L513.7551508609498,314.7278433149758A180,180 0,0,0 515.5849081579614,310.58072109520754L432.7924540789807,275.29036054760377A90,90 0,0,1 431.8775754304749,277.36392165748794Z" style="pointer-events: all; stroke-width: 1; fill: rgb(51, 255, 201); fill-opacity: 1; stroke: rgb(255, 255, 255); stroke-opacity: 1; opacity: 0.7;"/><g class="slicetext"><text data-notex="1" class="slicetext" text-anchor="middle" x="0" y="0" style="font-family: 'Open Sans', verdana, arial, sans-serif; font-size: 12px; fill: rgb(68, 68, 68); fill-opacity: 1; white-space: pre;" transform="translate(502.23555040363374,308.5316297250169)scale(0.26007516446388124)rotate(23.807615230460897)">Global Analytica</text></g></g><g class="slice"><path class="surface" d="M432.7924540789807,275.29036054760377L515.5849081579614,310.58072109520754A180,180 0,0,0 517.309658893802,306.38883973108454L433.654829446901,273.1944198655423A90,90 0,0,1 432.7924540789807,275.29036054760377Z" style="pointer-events: all; stroke-width: 1; fill: rgb(224, 198, 253); fill-opacity: 1; stroke: rgb(255, 255, 255); stroke-opacity: 1; opacity: 0.7;"/><g class="slicetext"><text data-notex="1" class="slicetext" text-anchor="middle" x="0" y="0" style="font-family: 'Open Sans', verdana, arial, sans-serif; font-size: 12px; fill: rgb(68, 68, 68); fill-opacity: 1; white-space: pre;" transform="translate(507.7114428884442,306.3119391269855)scale(0.2740526745969993)rotate(22.36472945891785)">SocialFlow</text></g></g><g class="slice"><path class="surface" d="M433.654829446901,273.1944198655423L517.309658893802,306.38883973108454A180,180 0,0,0 518.9283093085045,302.15485752674704L434.46415465425224,271.0774287633735A90,90 0,0,1 433.654829446901,273.1944198655423Z" style="pointer-events: all; stroke-width: 1; fill: rgb(255, 219, 192); fill-opacity: 1; stroke: rgb(255, 255, 255); stroke-opacity: 1; opacity: 0.7;"/><g class="slicetext"><text data-notex="1" class="slicetext" text-anchor="middle" x="0" y="0" style="font-family: 'Open Sans', verdana, arial, sans-serif; font-size: 12px; fill: rgb(68, 68, 68); fill-opacity: 1; white-space: pre;" transform="translate(512.9326650215003,303.76405294376286)scale(0.2872053604667807)rotate(20.921843687374803)">dlvr.it</text></g></g><g class="slice"><path class="surface" d="M434.46415465425224,271.0774287633735L518.9283093085045,302.15485752674704A180,180 0,0,0 519.6975234753401,300.0229166763531L434.84876173767003,270.01145833817657A90,90 0,0,1 434.46415465425224,271.0774287633735Z" style="pointer-events: all; stroke-width: 1; fill: rgb(122, 230, 248); fill-opacity: 1; stroke: rgb(255, 255, 255); stroke-opacity: 1; opacity: 0.7;"/><g class="slicetext"><text data-notex="1" class="slicetext" text-anchor="middle" x="0" y="0" style="font-family: 'Open Sans', verdana, arial, sans-serif; font-size: 12px; fill: rgb(68, 68, 68); fill-opacity: 1; white-space: pre;" transform="translate(512.7218091952324,299.42813871711166)scale(0.14066989003707583)rotate(19.83967935871749)">7thSpace News</text></g></g><g class="slice"><path class="surface" d="M434.84876173767003,270.01145833817657L519.6975234753401,300.0229166763531A180,180 0,0,0 520.4398329261924,297.88145948480934L435.2199164630962,268.9407297424047A90,90 0,0,1 434.84876173767003,270.01145833817657Z" style="pointer-events: all; stroke-width: 1; fill: rgb(255, 204, 219); fill-opacity: 1; stroke: rgb(255, 255, 255); stroke-opacity: 1; opacity: 0.7;"/><g class="slicetext"><text data-notex="1" class="slicetext" text-anchor="middle" x="0" y="0" style="font-family: 'Open Sans', verdana, arial, sans-serif; font-size: 12px; fill: rgb(68, 68, 68); fill-opacity: 1; white-space: pre;" transform="translate(517.138805233591,298.6844864440428)scale(0.14731498177169705)rotate(19.11823647294591)">Buffer</text></g></g><g class="slice"><path class="surface" d="M435.2199164630962,268.9407297424047L520.4398329261924,297.88145948480934A180,180 0,0,0 521.1551199715129,295.7308254697256L435.57755998575647,267.8654127348628A90,90 0,0,1 435.2199164630962,268.9407297424047Z" style="pointer-events: all; stroke-width: 1; fill: rgb(232, 248, 214); fill-opacity: 1; stroke: rgb(255, 255, 255); stroke-opacity: 1; opacity: 0.7;"/><g class="slicetext"><text data-notex="1" class="slicetext" text-anchor="middle" x="0" y="0" style="font-family: 'Open Sans', verdana, arial, sans-serif; font-size: 12px; fill: rgb(68, 68, 68); fill-opacity: 1; white-space: pre;" transform="translate(514.2855644390057,295.3526466685667)scale(0.14090839983856268)rotate(18.39679358717433)">COVID19_bot_</text></g></g><g class="slice"><path class="surface" d="M435.57755998575647,267.8654127348628L521.1551199715129,295.7308254697256A180,180 0,0,0 521.8432712060239,293.5713556036519L435.92163560301196,266.78567780182595A90,90 0,0,1 435.57755998575647,267.8654127348628Z" style="pointer-events: all; stroke-width: 1; fill: rgb(255, 253, 255); fill-opacity: 1; stroke: rgb(255, 255, 255); stroke-opacity: 1; opacity: 0.7;"/><g class="slicetext"><text data-notex="1" class="slicetext" text-anchor="middle" x="0" y="0" style="font-family: 'Open Sans', verdana, arial, sans-serif; font-size: 12px; fill: rgb(68, 68, 68); fill-opacity: 1; white-space: pre;" transform="translate(517.700872402858,294.1744251792434)scale(0.1457398744431047)rotate(17.675350701402806)">CP24GO</text></g></g><g class="slice"><path class="surface" d="M435.92163560301196,266.78567780182595L521.8432712060239,293.5713556036519A180,180 0,0,0 522.504177526698,291.4033922600199L436.252088763349,265.70169613000996A90,90 0,0,1 435.92163560301196,266.78567780182595Z" style="pointer-events: all; stroke-width: 1; fill: rgb(255, 233, 183); fill-opacity: 1; stroke: rgb(255, 255, 255); stroke-opacity: 1; opacity: 0.7;"/><g class="slicetext"><text data-notex="1" class="slicetext" text-anchor="middle" x="0" y="0" style="font-family: 'Open Sans', verdana, arial, sans-serif; font-size: 12px; fill: rgb(68, 68, 68); fill-opacity: 1; white-space: pre;" transform="translate(516.0064689438133,291.3170521515594)scale(0.1415352052868133)rotate(16.953907815631226)">Crowdfire App</text></g></g><g class="slice"><path class="surface" d="M436.252088763349,265.70169613000996L522.504177526698,291.4033922600199A180,180 0,0,0 523.1377341500564,289.2272791588605L436.5688670750282,264.61363957943024A90,90 0,0,1 436.252088763349,265.70169613000996Z" style="pointer-events: all; stroke-width: 1; fill: rgb(8, 25, 239); fill-opacity: 1; stroke: rgb(255, 255, 255); stroke-opacity: 1; opacity: 0.7;"/><g class="slicetext"><text data-notex="1" class="slicetext" text-anchor="middle" x="0" y="0" style="font-family: 'Open Sans', verdana, arial, sans-serif; font-size: 12px; fill: rgb(255, 255, 255); fill-opacity: 1; white-space: pre;" transform="translate(517.7683888160874,289.56144723952593)scale(0.14353828292956386)rotate(16.232464929859702)">FD Tyranny</text></g></g><g class="slice"><path class="surface" d="M436.5688670750282,264.61363957943024L523.1377341500564,289.2272791588605A180,180 0,0,0 523.7438406287819,287.043361312309L436.87192031439093,263.5216806561545A90,90 0,0,1 436.5688670750282,264.61363957943024Z" style="pointer-events: all; stroke-width: 1; fill: rgb(181, 39, 15); fill-opacity: 1; stroke: rgb(255, 255, 255); stroke-opacity: 1; opacity: 0.7;"/><g class="slicetext"><text data-notex="1" class="slicetext" text-anchor="middle" x="0" y="0" style="font-family: 'Open Sans', verdana, arial, sans-serif; font-size: 12px; fill: rgb(255, 255, 255); fill-opacity: 1; white-space: pre;" transform="translate(513.0421633030982,285.9171760819303)scale(0.13414604687039108)rotate(15.511022044088122)">Global Citizen Mobile App</text></g></g><g class="slice"><path class="surface" d="M436.87192031439093,263.5216806561545L523.7438406287819,287.043361312309A180,180 0,0,0 524.3224008676435,284.8519849699051L437.16120043382176,262.4259924849526A90,90 0,0,1 436.87192031439093,263.5216806561545Z" style="pointer-events: all; stroke-width: 1; fill: rgb(0, 102, 75); fill-opacity: 1; stroke: rgb(255, 255, 255); stroke-opacity: 1; opacity: 0.7;"/><g class="slicetext"><text data-notex="1" class="slicetext" text-anchor="middle" x="0" y="0" style="font-family: 'Open Sans', verdana, arial, sans-serif; font-size: 12px; fill: rgb(255, 255, 255); fill-opacity: 1; white-space: pre;" transform="translate(520.5677642316242,285.7587758780509)scale(0.14633739264439505)rotate(14.789579158316542)">Lightful</text></g></g><g class="slice"><path class="surface" d="M437.16120043382176,262.4259924849526L524.3224008676435,284.8519849699051A180,180 0,0,0 524.873323138733,282.6534975636968L437.4366615693665,261.3267487818484A90,90 0,0,1 437.16120043382176,262.4259924849526Z" style="pointer-events: all; stroke-width: 1; fill: rgb(118, 8, 239); fill-opacity: 1; stroke: rgb(255, 255, 255); stroke-opacity: 1; opacity: 0.7;"/><g class="slicetext"><text data-notex="1" class="slicetext" text-anchor="middle" x="0" y="0" style="font-family: 'Open Sans', verdana, arial, sans-serif; font-size: 12px; fill: rgb(255, 255, 255); fill-opacity: 1; white-space: pre;" transform="translate(520.6441462814208,283.4814428396337)scale(0.145488544629558)rotate(14.068136272544962)">LinkedIn</text></g></g><g class="slice"><path class="surface" d="M437.4366615693665,261.3267487818484L524.873323138733,282.6534975636968A180,180 0,0,0 525.3965200960068,280.4482476531564L437.6982600480034,260.2241238265782A90,90 0,0,1 437.4366615693665,261.3267487818484Z" style="pointer-events: all; stroke-width: 1; fill: rgb(243, 105, 0); fill-opacity: 1; stroke: rgb(255, 255, 255); stroke-opacity: 1; opacity: 0.7;"/><g class="slicetext"><text data-notex="1" class="slicetext" text-anchor="middle" x="0" y="0" style="font-family: 'Open Sans', verdana, arial, sans-serif; font-size: 12px; fill: rgb(68, 68, 68); fill-opacity: 1; white-space: pre;" transform="translate(523.1802248426884,281.82164595809735)scale(0.14899025760329138)rotate(13.346693386773438)">Mac</text></g></g><g class="slice"><path class="surface" d="M437.6982600480034,260.2241238265782L525.3965200960068,280.4482476531564A180,180 0,0,0 525.8919087891354,278.23658486991854L437.9459543945677,259.1182924349593A90,90 0,0,1 437.6982600480034,260.2241238265782Z" style="pointer-events: all; stroke-width: 1; fill: rgb(8, 136, 158); fill-opacity: 1; stroke: rgb(255, 255, 255); stroke-opacity: 1; opacity: 0.7;"/><g class="slicetext"><text data-notex="1" class="slicetext" text-anchor="middle" x="0" y="0" style="font-family: 'Open Sans', verdana, arial, sans-serif; font-size: 12px; fill: rgb(255, 255, 255); fill-opacity: 1; white-space: pre;" transform="translate(521.1017737380696,279.03516819175616)scale(0.14447683759013227)rotate(12.625250501001858)">Mailchimp</text></g></g><g class="slice"><path class="surface" d="M437.9459543945677,259.1182924349593L525.8919087891354,278.23658486991854A180,180 0,0,0 526.3594106766536,276.01885986234754L438.1797053383268,258.00942993117377A90,90 0,0,1 437.9459543945677,259.1182924349593Z" style="pointer-events: all; stroke-width: 1; fill: rgb(255, 0, 73); fill-opacity: 1; stroke: rgb(255, 255, 255); stroke-opacity: 1; opacity: 0.7;"/><g class="slicetext"><text data-notex="1" class="slicetext" text-anchor="middle" x="0" y="0" style="font-family: 'Open Sans', verdana, arial, sans-serif; font-size: 12px; fill: rgb(255, 255, 255); fill-opacity: 1; white-space: pre;" transform="translate(521.4671810875593,276.8530177041074)scale(0.14428216391223564)rotate(11.903807615230278)">Micro.blog</text></g></g><g class="slice"><path class="surface" d="M438.1797053383268,258.00942993117377L526.3594106766536,276.01885986234754A180,180 0,0,0 526.7989516384139,273.7954242399438L438.39947581920694,256.8977121199719A90,90 0,0,1 438.1797053383268,258.00942993117377Z" style="pointer-events: all; stroke-width: 1; fill: rgb(132, 216, 42); fill-opacity: 1; stroke: rgb(255, 255, 255); stroke-opacity: 1; opacity: 0.7;"/><g class="slicetext"><text data-notex="1" class="slicetext" text-anchor="middle" x="0" y="0" style="font-family: 'Open Sans', verdana, arial, sans-serif; font-size: 12px; fill: rgb(68, 68, 68); fill-opacity: 1; white-space: pre;" transform="translate(516.9078131440544,273.65874859065696)scale(0.1356923274850864)rotate(11.182364729458754)">Muchene Kenya Helper</text></g></g><g class="slice"><path class="surface" d="M438.39947581920694,256.8977121199719L526.7989516384139,273.7954242399438A180,180 0,0,0 527.2104619873371,271.566630517598L438.60523099366856,255.783315258799A90,90 0,0,1 438.39947581920694,256.8977121199719Z" style="pointer-events: all; stroke-width: 1; fill: rgb(255, 49, 255); fill-opacity: 1; stroke: rgb(255, 255, 255); stroke-opacity: 1; opacity: 0.7;"/><g class="slicetext"><text data-notex="1" class="slicetext" text-anchor="middle" x="0" y="0" style="font-family: 'Open Sans', verdana, arial, sans-serif; font-size: 12px; fill: rgb(68, 68, 68); fill-opacity: 1; white-space: pre;" transform="translate(520.0789199260668,272.08713402233633)scale(0.1403950070019764)rotate(10.460921843687174)">OneDirect Suite</text></g></g><g class="slice"><path class="surface" d="M438.60523099366856,255.783315258799L527.2104619873371,271.566630517598A180,180 0,0,0 527.5938764804613,269.3328320597014L438.79693824023065,254.6664160298507A90,90 0,0,1 438.60523099366856,255.783315258799Z" style="pointer-events: all; stroke-width: 1; fill: rgb(233, 164, 1); fill-opacity: 1; stroke: rgb(255, 255, 255); stroke-opacity: 1; opacity: 0.7;"/><g class="slicetext"><text data-notex="1" class="slicetext" text-anchor="middle" x="0" y="0" style="font-family: 'Open Sans', verdana, arial, sans-serif; font-size: 12px; fill: rgb(68, 68, 68); fill-opacity: 1; white-space: pre;" transform="translate(524.059258349332,270.5892232796909)scale(0.14655308318152205)rotate(9.739478957915594)">Paper.li</text></g></g><g class="slice"><path class="surface" d="M438.79693824023065,254.6664160298507L527.5938764804613,269.3328320597014A180,180 0,0,0 527.9491343292857,267.09438302412167L438.97456716464285,253.54719151206083A90,90 0,0,1 438.79693824023065,254.6664160298507Z" style="pointer-events: all; stroke-width: 1; fill: rgb(99, 110, 250); fill-opacity: 1; stroke: rgb(255, 255, 255); stroke-opacity: 1; opacity: 0.7;"/><g class="slicetext"><text data-notex="1" class="slicetext" text-anchor="middle" x="0" y="0" style="font-family: 'Open Sans', verdana, arial, sans-serif; font-size: 12px; fill: rgb(255, 255, 255); fill-opacity: 1; white-space: pre;" transform="translate(519.4438722631661,267.56225305071064)scale(0.13800960274032714)rotate(9.01803607214407)">Prayer Power Radio</text></g></g><g class="slice"><path class="surface" d="M438.97456716464285,253.54719151206083L527.9491343292857,267.09438302412167A180,180 0,0,0 528.2761792094084,264.85163830605313L439.1380896047042,252.42581915302657A90,90 0,0,1 438.97456716464285,253.54719151206083Z" style="pointer-events: all; stroke-width: 1; fill: rgb(239, 85, 59); fill-opacity: 1; stroke: rgb(255, 255, 255); stroke-opacity: 1; opacity: 0.7;"/><g class="slicetext"><text data-notex="1" class="slicetext" text-anchor="middle" x="0" y="0" style="font-family: 'Open Sans', verdana, arial, sans-serif; font-size: 12px; fill: rgb(68, 68, 68); fill-opacity: 1; white-space: pre;" transform="translate(519.0498591562412,265.31442752904223)scale(0.1367655300050704)rotate(8.29659318637249)">RSS Post Syndication</text></g></g><g class="slice"><path class="surface" d="M439.1380896047042,252.42581915302657L528.2761792094084,264.85163830605313A180,180 0,0,0 528.5749592694563,262.60495348174936L439.28747963472813,251.30247674087468A90,90 0,0,1 439.1380896047042,252.42581915302657Z" style="pointer-events: all; stroke-width: 1; fill: rgb(0, 204, 150); fill-opacity: 1; stroke: rgb(255, 255, 255); stroke-opacity: 1; opacity: 0.7;"/><g class="slicetext"><text data-notex="1" class="slicetext" text-anchor="middle" x="0" y="0" style="font-family: 'Open Sans', verdana, arial, sans-serif; font-size: 12px; fill: rgb(68, 68, 68); fill-opacity: 1; white-space: pre;" transform="translate(518.606390748085,263.07811104374986)scale(0.1354876167975287)rotate(7.57515030060091)">SnapStream TV Search</text></g></g><g class="slice"><path class="surface" d="M439.28747963472813,251.30247674087468L528.5749592694563,262.60495348174936A180,180 0,0,0 528.8454271393056,260.3546847521488L439.4227135696528,250.1773423760744A90,90 0,0,1 439.28747963472813,251.30247674087468Z" style="pointer-events: all; stroke-width: 1; fill: rgb(171, 99, 250); fill-opacity: 1; stroke: rgb(255, 255, 255); stroke-opacity: 1; opacity: 0.7;"/><g class="slicetext"><text data-notex="1" class="slicetext" text-anchor="middle" x="0" y="0" style="font-family: 'Open Sans', verdana, arial, sans-serif; font-size: 12px; fill: rgb(68, 68, 68); fill-opacity: 1; white-space: pre;" transform="translate(517.3241607053808,260.75304965189764)scale(0.1328307839425471)rotate(6.853707414829387)">Social Media Publisher App </text></g></g><g class="slice"><path class="surface" d="M439.4227135696528,250.1773423760744L528.8454271393056,260.3546847521488A180,180 0,0,0 529.0875399375927,258.1011888864005L439.54376996879637,249.05059444320025A90,90 0,0,1 439.4227135696528,250.1773423760744Z" style="pointer-events: all; stroke-width: 1; fill: rgb(255, 161, 90); fill-opacity: 1; stroke: rgb(255, 255, 255); stroke-opacity: 1; opacity: 0.7;"/><g class="slicetext"><text data-notex="1" class="slicetext" text-anchor="middle" x="0" y="0" style="font-family: 'Open Sans', verdana, arial, sans-serif; font-size: 12px; fill: rgb(68, 68, 68); fill-opacity: 1; white-space: pre;" transform="translate(521.5973589647554,259.1101163544877)scale(0.13968531332622594)rotate(6.132264529057807)">SocialCS Flipkart</text></g></g><g class="slice"><path class="surface" d="M439.54376996879637,249.05059444320025L529.0875399375927,258.1011888864005A180,180 0,0,0 529.3012592785125,255.84482316530034L439.65062963925624,247.92241158265017A90,90 0,0,1 439.54376996879637,249.05059444320025Z" style="pointer-events: all; stroke-width: 1; fill: rgb(25, 211, 243); fill-opacity: 1; stroke: rgb(255, 255, 255); stroke-opacity: 1; opacity: 0.7;"/><g class="slicetext"><text data-notex="1" class="slicetext" text-anchor="middle" x="0" y="0" style="font-family: 'Open Sans', verdana, arial, sans-serif; font-size: 12px; fill: rgb(68, 68, 68); fill-opacity: 1; white-space: pre;" transform="translate(521.9744777346646,256.9638998004471)scale(0.1400383805330928)rotate(5.410821643286226)">SocialNewsDesk</text></g></g><g class="slice"><path class="surface" d="M439.65062963925624,247.92241158265017L529.3012592785125,255.84482316530034A180,180 0,0,0 529.4865512779043,253.58594532464573L439.7432756389521,246.79297266232285A90,90 0,0,1 439.65062963925624,247.92241158265017Z" style="pointer-events: all; stroke-width: 1; fill: rgb(255, 102, 146); fill-opacity: 1; stroke: rgb(255, 255, 255); stroke-opacity: 1; opacity: 0.7;"/><g class="slicetext"><text data-notex="1" class="slicetext" text-anchor="middle" x="0" y="0" style="font-family: 'Open Sans', verdana, arial, sans-serif; font-size: 12px; fill: rgb(68, 68, 68); fill-opacity: 1; white-space: pre;" transform="translate(523.5257718491478,254.9185613988253)scale(0.14222571414130974)rotate(4.689378757514703)">SocialPilot.co</text></g></g><g class="slice"><path class="surface" d="M439.7432756389521,246.79297266232285L529.4865512779043,253.58594532464573A180,180 0,0,0 529.6433865586237,251.3249134985184L439.82169327931183,245.6624567492592A90,90 0,0,1 439.7432756389521,246.79297266232285Z" style="pointer-events: all; stroke-width: 1; fill: rgb(182, 232, 128); fill-opacity: 1; stroke: rgb(255, 255, 255); stroke-opacity: 1; opacity: 0.7;"/><g class="slicetext"><text data-notex="1" class="slicetext" text-anchor="middle" x="0" y="0" style="font-family: 'Open Sans', verdana, arial, sans-serif; font-size: 12px; fill: rgb(68, 68, 68); fill-opacity: 1; white-space: pre;" transform="translate(522.2679636259812,252.62102375545277)scale(0.13970283677111295)rotate(3.967935871743123)">Tweetbot for iΟS</text></g></g><g class="slice"><path class="surface" d="M439.82169327931183,245.6624567492592L529.6433865586237,251.3249134985184A180,180 0,0,0 529.7717402552007,249.06208616250402L439.88587012760036,244.531043081252A90,90 0,0,1 439.82169327931183,245.6624567492592Z" style="pointer-events: all; stroke-width: 1; fill: rgb(255, 151, 255); fill-opacity: 1; stroke: rgb(255, 255, 255); stroke-opacity: 1; opacity: 0.7;"/><g class="slicetext"><text data-notex="1" class="slicetext" text-anchor="middle" x="0" y="0" style="font-family: 'Open Sans', verdana, arial, sans-serif; font-size: 12px; fill: rgb(68, 68, 68); fill-opacity: 1; white-space: pre;" transform="translate(525.214420840128,250.63263489651325)scale(0.14444498002253747)rotate(3.2464929859715426)">Twibble.io</text></g></g><g class="slice"><path class="surface" d="M439.88587012760036,244.531043081252L529.7717402552007,249.06208616250402A180,180 0,0,0 529.871592017782,246.79782207685753L439.935796008891,243.39891103842876A90,90 0,0,1 439.88587012760036,244.531043081252Z" style="pointer-events: all; stroke-width: 1; fill: rgb(254, 203, 82); fill-opacity: 1; stroke: rgb(255, 255, 255); stroke-opacity: 1; opacity: 0.7;"/><g class="slicetext"><text data-notex="1" class="slicetext" text-anchor="middle" x="0" y="0" style="font-family: 'Open Sans', verdana, arial, sans-serif; font-size: 12px; fill: rgb(68, 68, 68); fill-opacity: 1; white-space: pre;" transform="translate(521.0471055608264,248.20175260664323)scale(0.13719518463591865)rotate(2.525050100200019)">Twitter Media Studio</text></g></g><g class="slice"><path class="surface" d="M439.935796008891,243.39891103842876L529.871592017782,246.79782207685753A180,180 0,0,0 529.9429260153565,244.53248022962364L439.97146300767827,242.26624011481184A90,90 0,0,1 439.935796008891,243.39891103842876Z" style="pointer-events: all; stroke-width: 1; fill: rgb(198, 202, 253); fill-opacity: 1; stroke: rgb(255, 255, 255); stroke-opacity: 1; opacity: 0.7;"/><g class="slicetext"><text data-notex="1" class="slicetext" text-anchor="middle" x="0" y="0" style="font-family: 'Open Sans', verdana, arial, sans-serif; font-size: 12px; fill: rgb(68, 68, 68); fill-opacity: 1; white-space: pre;" transform="translate(523.5210427534136,246.14228257767041)scale(0.14131967332371587)rotate(1.803607214428439)">ZENITH NEWS</text></g></g><g class="slice"><path class="surface" d="M439.97146300767827,242.26624011481184L529.9429260153565,244.53248022962364A180,180 0,0,0 529.9857309382666,242.26641977972085L439.9928654691333,241.13320988986044A90,90 0,0,1 439.97146300767827,242.26624011481184Z" style="pointer-events: all; stroke-width: 1; fill: rgb(247, 167, 153); fill-opacity: 1; stroke: rgb(255, 255, 255); stroke-opacity: 1; opacity: 0.7;"/><g class="slicetext"><text data-notex="1" class="slicetext" text-anchor="middle" x="0" y="0" style="font-family: 'Open Sans', verdana, arial, sans-serif; font-size: 12px; fill: rgb(68, 68, 68); fill-opacity: 1; white-space: pre;" transform="translate(525.0395854162423,243.9962375849821)scale(0.14377920149259554)rotate(1.0821643286568587)">Zapier.com</text></g></g><g class="slice"><path class="surface" d="M439.9928654691333,241.13320988986044L529.9857309382666,242.26641977972085A180,180 0,0,0 530,239.9999999999986L440,239.9999999999993A90,90 0,0,1 439.9928654691333,241.13320988986044Z" style="pointer-events: all; stroke-width: 1; fill: rgb(51, 255, 201); fill-opacity: 1; stroke: rgb(255, 255, 255); stroke-opacity: 1; opacity: 0.7;"/><g class="slicetext"><text data-notex="1" class="slicetext" text-anchor="middle" x="0" y="0" style="font-family: 'Open Sans', verdana, arial, sans-serif; font-size: 12px; fill: rgb(68, 68, 68); fill-opacity: 1; white-space: pre;" transform="translate(522.7427105782269,241.7583790675109)scale(0.13984142669938368)rotate(0.36072144288533536)">cmssocialservice</text></g></g></g></g><g class="glimages"/><defs id="topdefs-34a387"><g class="clips"/></defs><g class="layer-above"><g class="imagelayer"/><g class="shapelayer"/></g><g class="infolayer"><g class="g-gtitle"/></g></svg>