<svg class="main-svg" xmlns="http://www.w3.org/2000/svg" xmlns:xlink="http://www.w3.org/1999/xlink" width="700" height="500" style="" viewBox="0 0 700 500"><rect x="0" y="0" width="700" height="500" style="fill: rgb(255, 255, 255); fill-opacity: 1;"/><defs id="defs-7993c7"><g class="clips"/><g class="gradients"/></defs><g class="bglayer"/><g class="layer-below"><g class="imagelayer"/><g class="shapelayer"/></g><g class="cartesianlayer"/><g class="polarlayer"/><g class="ternarylayer"/><g class="geolayer"/><g class="funnelarealayer"/><g class="pielayer"/><g class="treemaplayer"/><g class="sunburstlayer"><g class="trace sunburst" stroke-linejoin="round" style="opacity: 1;"><g class="slice"><path class="surface" d="M350,240A0,0 0,1,0 350,240A0,0 0,1,0 350,240ZM440,240A90,90 0,1,1 260,240A90,90 0,1,1 440,240.00000000000003Z" style="pointer-events: all; stroke-width: 1; fill: rgb(0, 0, 0); fill-opacity: 0; stroke: rgb(255, 255, 255); stroke-opacity: 1;"/><g class="slicetext"><text data-notex="1" class="slicetext" text-anchor="middle" x="0" y="0" style="font-family: 'Open Sans', verdana, arial, sans-serif; font-size: 12px; fill: rgb(42, 63, 95); fill-opacity: 1; white-space: pre;" transform="translate(349.96875,244.796875)">source</text></g></g><g class="slice"><path class="surface" d="M440,240L530,240A180,180 0,0,0 176.34178361338712,192.64153843904617L263.1708918066936,216.32076921952307A90,90 0,0,1 440,240Z" style="pointer-events: all; stroke-width: 1; fill: rgb(99, 110, 250); fill-opacity: 1; stroke: rgb(255, 255, 255); stroke-opacity: 1; opacity: 0.7;"/><g class="slicetext"><text data-notex="1" class="slicetext" text-anchor="middle" x="0" y="0" style="font-family: 'Open Sans', verdana, arial, sans-serif; font-size: 12px; fill: rgb(255, 255, 255); fill-opacity: 1; white-space: pre;" transform="translate(368.31638368330243,110.99124281445904)">Android</text></g></g><g class="slice"><path class="surface" d="M263.1708918066936,216.32076921952307L176.34178361338712,192.64153843904617A180,180 0,0,0 364.3614989995549,419.42616126553503L357.18074949977745,329.7130806327675A90,90 0,0,1 263.1708918066936,216.32076921952307Z" style="pointer-events: all; stroke-width: 1; fill: rgb(239, 85, 59); fill-opacity: 1; stroke: rgb(255, 255, 255); stroke-opacity: 1; opacity: 0.7;"/><g class="slicetext"><text data-notex="1" class="slicetext" text-anchor="middle" x="0" y="0" style="font-family: 'Open Sans', verdana, arial, sans-serif; font-size: 12px; fill: rgb(68, 68, 68); fill-opacity: 1; white-space: pre;" transform="translate(258.5691488911051,316.33004023041804)rotate(50.338983050847446)">Twitter Web App</text></g></g><g class="slice"><path class="surface" d="M357.18074949977745,329.7130806327675L364.3614989995549,419.42616126553503A180,180 0,0,0 513.9142591138843,314.3781934383081L431.95712955694216,277.189096719154A90,90 0,0,1 357.18074949977745,329.7130806327675Z" style="pointer-events: all; stroke-width: 1; fill: rgb(0, 204, 150); fill-opacity: 1; stroke: rgb(255, 255, 255); stroke-opacity: 1; opacity: 0.7;"/><g class="slicetext"><text data-notex="1" class="slicetext" text-anchor="middle" x="0" y="0" style="font-family: 'Open Sans', verdana, arial, sans-serif; font-size: 12px; fill: rgb(68, 68, 68); fill-opacity: 1; white-space: pre;" transform="translate(427.5650503789449,355.2677497476028)">iPhone</text></g></g><g class="slice"><path class="surface" d="M431.95712955694216,277.189096719154L513.9142591138843,314.3781934383081A180,180 0,0,0 525.932610167216,278.04887225333243L437.966305083608,259.0244361266662A90,90 0,0,1 431.95712955694216,277.189096719154Z" style="pointer-events: all; stroke-width: 1; fill: rgb(171, 99, 250); fill-opacity: 1; stroke: rgb(255, 255, 255); stroke-opacity: 1; opacity: 0.7;"/><g class="slicetext"><text data-notex="1" class="slicetext" text-anchor="middle" x="0" y="0" style="font-family: 'Open Sans', verdana, arial, sans-serif; font-size: 12px; fill: rgb(68, 68, 68); fill-opacity: 1; white-space: pre;" transform="translate(504.4721827809631,295.8988736083251)">iPad</text></g></g><g class="slice"><path class="surface" d="M437.966305083608,259.0244361266662L525.932610167216,278.04887225333243A180,180 0,0,0 528.9802640378247,259.1328274165258L439.49013201891233,249.5664137082629A90,90 0,0,1 437.966305083608,259.0244361266662Z" style="pointer-events: all; stroke-width: 1; fill: rgb(255, 161, 90); fill-opacity: 1; stroke: rgb(255, 255, 255); stroke-opacity: 1; opacity: 0.7;"/><g class="slicetext"><text data-notex="1" class="slicetext" text-anchor="middle" x="0" y="0" style="font-family: 'Open Sans', verdana, arial, sans-serif; font-size: 12px; fill: rgb(68, 68, 68); fill-opacity: 1; white-space: pre;" transform="translate(497.60436440820064,267.9704555077679)scale(0.8622028632222346)rotate(9.152542372881328)">TweetDeck</text></g></g><g class="slice"><path class="surface" d="M439.49013201891233,249.5664137082629L528.9802640378247,259.1328274165258A180,180 0,0,0 530,240.00000000000006L440,240.00000000000003A90,90 0,0,1 439.49013201891233,249.5664137082629Z" style="pointer-events: all; stroke-width: 1; fill: rgb(25, 211, 243); fill-opacity: 1; stroke: rgb(255, 255, 255); stroke-opacity: 1; opacity: 0.7;"/><g class="slicetext"><text data-notex="1" class="slicetext" text-anchor="middle" x="0" y="0" style="font-family: 'Open Sans', verdana, arial, sans-serif; font-size: 12px; fill: rgb(68, 68, 68); fill-opacity: 1; white-space: pre;" transform="translate(489.28958719911225,250.8216999621103)scale(0.7073495882971914)rotate(3.0508474576271283)">Twitter Web Client</text></g></g></g></g><g class="glimages"/><defs id="topdefs-7993c7"><g class="clips"/></defs><g class="layer-above"><g class="imagelayer"/><g class="shapelayer"/></g><g class="infolayer"><g class="g-gtitle"/></g></svg>