<svg class="main-svg" xmlns="http://www.w3.org/2000/svg" xmlns:xlink="http://www.w3.org/1999/xlink" width="700" height="500" style="" viewBox="0 0 700 500"><rect x="0" y="0" width="700" height="500" style="fill: rgb(255, 255, 255); fill-opacity: 1;"/><defs id="defs-d207f1"><g class="clips"/><g class="gradients"/></defs><g class="bglayer"/><g class="layer-below"><g class="imagelayer"/><g class="shapelayer"/></g><g class="cartesianlayer"/><g class="polarlayer"/><g class="ternarylayer"/><g class="geolayer"/><g class="funnelarealayer"/><g class="pielayer"/><g class="treemaplayer"/><g class="sunburstlayer"><g class="trace sunburst" stroke-linejoin="round" style="opacity: 1;"><g class="slice"><path class="surface" d="M350,240A0,0 0,1,0 350,240A0,0 0,1,0 350,240ZM410,240A60,60 0,1,1 290,240A60,60 0,1,1 410,240.00000000000003Z" style="pointer-events: all; stroke-width: 1; fill: rgb(0, 0, 0); fill-opacity: 0; stroke: rgb(255, 255, 255); stroke-opacity: 1;"/><g class="slicetext"><text data-notex="1" class="slicetext" text-anchor="middle" x="0" y="0" style="font-family: 'Open Sans', verdana, arial, sans-serif; font-size: 12px; fill: rgb(42, 63, 95); fill-opacity: 1; white-space: pre;" transform="translate(349.96875,244.796875)">source</text></g></g><g class="slice cursor-pointer"><path class="surface" d="M410,240L470,240A120,120 0,0,0 265.53780646089064,154.7583560543203L307.7689032304453,197.37917802716015A60,60 0,0,1 410,240Z" style="pointer-events: all; stroke-width: 1; fill: rgb(99, 110, 250); fill-opacity: 1; stroke: rgb(255, 255, 255); stroke-opacity: 1;"/><g class="slicetext"><text data-notex="1" class="slicetext" text-anchor="middle" x="0" y="0" style="font-family: 'Open Sans', verdana, arial, sans-serif; font-size: 12px; fill: rgb(255, 255, 255); fill-opacity: 1; white-space: pre;" transform="translate(384.6323687907001,161.72703070048937)">neutral</text></g></g><g class="slice cursor-pointer"><path class="surface" d="M307.7689032304453,197.37917802716015L265.53780646089064,154.7583560543203A120,120 0,0,0 307.2360675291346,352.12156830702673L328.61803376456726,296.06078415351334A60,60 0,0,1 307.7689032304453,197.37917802716015Z" style="pointer-events: all; stroke-width: 1; fill: rgb(239, 85, 59); fill-opacity: 1; stroke: rgb(255, 255, 255); stroke-opacity: 1;"/><g class="slicetext"><text data-notex="1" class="slicetext" text-anchor="middle" x="0" y="0" style="font-family: 'Open Sans', verdana, arial, sans-serif; font-size: 12px; fill: rgb(68, 68, 68); fill-opacity: 1; white-space: pre;" transform="translate(261.92042608940574,263.4010906630915)">positive</text></g></g><g class="slice cursor-pointer"><path class="surface" d="M328.61803376456726,296.06078415351334L307.2360675291346,352.12156830702673A120,120 0,0,0 470,240.00000000000003L410,240.00000000000003A60,60 0,0,1 328.61803376456726,296.06078415351334Z" style="pointer-events: all; stroke-width: 1; fill: rgb(0, 204, 150); fill-opacity: 1; stroke: rgb(255, 255, 255); stroke-opacity: 1;"/><g class="slicetext"><text data-notex="1" class="slicetext" text-anchor="middle" x="0" y="0" style="font-family: 'Open Sans', verdana, arial, sans-serif; font-size: 12px; fill: rgb(68, 68, 68); fill-opacity: 1; white-space: pre;" transform="translate(401.0247709878158,318.913558148207)">negative</text></g></g><g class="slice"><path class="surface" d="M470,240L530,240A180,180 0,0,0 429.30287030777004,78.41084578181304L402.86858020518,132.27389718787535A120,120 0,0,1 470,240Z" style="pointer-events: all; stroke-width: 1; fill: rgb(99, 110, 250); fill-opacity: 1; stroke: rgb(255, 255, 255); stroke-opacity: 1; opacity: 0.7;"/><g class="slicetext"><text data-notex="1" class="slicetext" text-anchor="middle" x="0" y="0" style="font-family: 'Open Sans', verdana, arial, sans-serif; font-size: 12px; fill: rgb(255, 255, 255); fill-opacity: 1; white-space: pre;" transform="translate(477.27322515400084,165.4648473833786)">iPhone</text></g></g><g class="slice"><path class="surface" d="M402.86858020518,132.27389718787535L429.30287030777004,78.41084578181304A180,180 0,0,0 335.13571781498024,60.614791258799414L340.09047854332016,120.40986083919962A120,120 0,0,1 402.86858020518,132.27389718787535Z" style="pointer-events: all; stroke-width: 1; fill: rgb(99, 110, 250); fill-opacity: 1; stroke: rgb(255, 255, 255); stroke-opacity: 1; opacity: 0.7;"/><g class="slicetext"><text data-notex="1" class="slicetext" text-anchor="middle" x="0" y="0" style="font-family: 'Open Sans', verdana, arial, sans-serif; font-size: 12px; fill: rgb(255, 255, 255); fill-opacity: 1; white-space: pre;" transform="translate(378.25294290756227,97.40580834906598)">Android</text></g></g><g class="slice"><path class="surface" d="M340.09047854332016,120.40986083919962L335.13571781498024,60.614791258799414A180,180 0,0,0 267.74198205489733,79.89497670671551L295.16132136993156,133.263317804477A120,120 0,0,1 340.09047854332016,120.40986083919962Z" style="pointer-events: all; stroke-width: 1; fill: rgb(99, 110, 250); fill-opacity: 1; stroke: rgb(255, 255, 255); stroke-opacity: 1; opacity: 0.7;"/><g class="slicetext"><text data-notex="1" class="slicetext" text-anchor="middle" x="0" y="0" style="font-family: 'Open Sans', verdana, arial, sans-serif; font-size: 12px; fill: rgb(255, 255, 255); fill-opacity: 1; white-space: pre;" transform="translate(303.7608348269113,77.41699121539055)scale(0.6461510785581301)rotate(-15.964912280701697)">Twitter Web App</text></g></g><g class="slice"><path class="surface" d="M295.16132136993156,133.263317804477L267.74198205489733,79.89497670671551A180,180 0,0,0 254.33424918503798,87.52684130966003L286.22283279002534,138.35122753977333A120,120 0,0,1 295.16132136993156,133.263317804477Z" style="pointer-events: all; stroke-width: 1; fill: rgb(99, 110, 250); fill-opacity: 1; stroke: rgb(255, 255, 255); stroke-opacity: 1; opacity: 0.7;"/><g class="slicetext"><text data-notex="1" class="slicetext" text-anchor="middle" x="0" y="0" style="font-family: 'Open Sans', verdana, arial, sans-serif; font-size: 12px; fill: rgb(255, 255, 255); fill-opacity: 1; white-space: pre;" transform="translate(270.5164773906568,107.55548568395307)scale(0.7417819203349201)rotate(60.350877192982466)">TweetDeck</text></g></g><g class="slice"><path class="surface" d="M286.22283279002534,138.35122753977333L254.33424918503798,87.52684130966003A180,180 0,0,0 248.79764263890428,91.1440869009327L282.5317617592695,140.76272460062182A120,120 0,0,1 286.22283279002534,138.35122753977333Z" style="pointer-events: all; stroke-width: 1; fill: rgb(99, 110, 250); fill-opacity: 1; stroke: rgb(255, 255, 255); stroke-opacity: 1; opacity: 0.7;"/><g class="slicetext"><text data-notex="1" class="slicetext" text-anchor="middle" x="0" y="0" style="font-family: 'Open Sans', verdana, arial, sans-serif; font-size: 12px; fill: rgb(255, 255, 255); fill-opacity: 1; white-space: pre;" transform="translate(254.12740204291558,96.81235901288296)scale(0.40549497116616395)rotate(56.84210526315792)">Buffer</text></g></g><g class="slice"><path class="surface" d="M282.5317617592695,140.76272460062182L248.79764263890428,91.1440869009327A180,180 0,0,0 243.3976545203036,94.96228098102392L278.9317696802024,143.3081873206826A120,120 0,0,1 282.5317617592695,140.76272460062182Z" style="pointer-events: all; stroke-width: 1; fill: rgb(99, 110, 250); fill-opacity: 1; stroke: rgb(255, 255, 255); stroke-opacity: 1; opacity: 0.7;"/><g class="slicetext"><text data-notex="1" class="slicetext" text-anchor="middle" x="0" y="0" style="font-family: 'Open Sans', verdana, arial, sans-serif; font-size: 12px; fill: rgb(255, 255, 255); fill-opacity: 1; white-space: pre;" transform="translate(256.25183346339753,110.28925876106136)scale(0.34605166986829694)rotate(54.73684210526312)">Twitter Web Client</text></g></g><g class="slice"><path class="surface" d="M278.9317696802024,143.3081873206826L243.3976545203036,94.96228098102392A180,180 0,0,0 238.14157455948236,98.97626916732008L275.42771637298824,145.98417944488006A120,120 0,0,1 278.9317696802024,143.3081873206826Z" style="pointer-events: all; stroke-width: 1; fill: rgb(99, 110, 250); fill-opacity: 1; stroke: rgb(255, 255, 255); stroke-opacity: 1; opacity: 0.7;"/><g class="slicetext"><text data-notex="1" class="slicetext" text-anchor="middle" x="0" y="0" style="font-family: 'Open Sans', verdana, arial, sans-serif; font-size: 12px; fill: rgb(255, 255, 255); fill-opacity: 1; white-space: pre;" transform="translate(243.53055807293995,103.81381201864313)scale(0.40858914535745683)rotate(52.63157894736844)">dlvr.it</text></g></g><g class="slice"><path class="surface" d="M275.42771637298824,145.98417944488006L238.14157455948236,98.97626916732008A180,180 0,0,0 234.72098244566848,101.75837055464035L273.1473216304457,147.83891370309357A120,120 0,0,1 275.42771637298824,145.98417944488006Z" style="pointer-events: all; stroke-width: 1; fill: rgb(99, 110, 250); fill-opacity: 1; stroke: rgb(255, 255, 255); stroke-opacity: 1; opacity: 0.7;"/><g class="slicetext"><text data-notex="1" class="slicetext" text-anchor="middle" x="0" y="0" style="font-family: 'Open Sans', verdana, arial, sans-serif; font-size: 12px; fill: rgb(255, 255, 255); fill-opacity: 1; white-space: pre;" transform="translate(246.30263308493306,114.32677153964357)scale(0.23974973254497123)rotate(50.87719298245611)">Nintendo Switch Share</text></g></g><g class="slice"><path class="surface" d="M273.1473216304457,147.83891370309357L234.72098244566848,101.75837055464035A180,180 0,0,0 231.36955965850387,104.62341921741881L270.9130397723359,149.74894614494588A120,120 0,0,1 273.1473216304457,147.83891370309357Z" style="pointer-events: all; stroke-width: 1; fill: rgb(99, 110, 250); fill-opacity: 1; stroke: rgb(255, 255, 255); stroke-opacity: 1; opacity: 0.7;"/><g class="slicetext"><text data-notex="1" class="slicetext" text-anchor="middle" x="0" y="0" style="font-family: 'Open Sans', verdana, arial, sans-serif; font-size: 12px; fill: rgb(255, 255, 255); fill-opacity: 1; white-space: pre;" transform="translate(234.38858314426759,106.85745480266715)scale(0.28382202173669474)rotate(49.47368421052636)">iPad</text></g></g><g class="slice"><path class="surface" d="M270.9130397723359,149.74894614494588L231.36955965850387,104.62341921741881A180,180 0,0,0 229.7204168259625,106.08651348172657L269.81361121730833,150.72434232115106A120,120 0,0,1 270.9130397723359,149.74894614494588Z" style="pointer-events: all; stroke-width: 1; fill: rgb(99, 110, 250); fill-opacity: 1; stroke: rgb(255, 255, 255); stroke-opacity: 1; opacity: 0.7;"/><g class="slicetext"><text data-notex="1" class="slicetext" text-anchor="middle" x="0" y="0" style="font-family: 'Open Sans', verdana, arial, sans-serif; font-size: 12px; fill: rgb(255, 255, 255); fill-opacity: 1; white-space: pre;" transform="translate(233.47618439047903,109.66736097205333)scale(0.13952185915836804)rotate(48.42105263157896)">Attack Auto</text></g></g><g class="slice"><path class="surface" d="M269.81361121730833,150.72434232115106L229.7204168259625,106.08651348172657A180,180 0,0,0 228.08931710736664,107.5696960788363L268.7262114049111,151.71313071922418A120,120 0,0,1 269.81361121730833,150.72434232115106Z" style="pointer-events: all; stroke-width: 1; fill: rgb(99, 110, 250); fill-opacity: 1; stroke: rgb(255, 255, 255); stroke-opacity: 1; opacity: 0.7;"/><g class="slicetext"><text data-notex="1" class="slicetext" text-anchor="middle" x="0" y="0" style="font-family: 'Open Sans', verdana, arial, sans-serif; font-size: 12px; fill: rgb(255, 255, 255); fill-opacity: 1; white-space: pre;" transform="translate(232.48714399079233,111.75146401156275)scale(0.1379815615958247)rotate(47.71929824561403)">Hootsuite Inc.</text></g></g><g class="slice"><path class="surface" d="M268.7262114049111,151.71313071922418L228.08931710736664,107.5696960788363A180,180 0,0,0 226.47650518362798,109.0727445168512L267.65100345575195,152.71516301123415A120,120 0,0,1 268.7262114049111,151.71313071922418Z" style="pointer-events: all; stroke-width: 1; fill: rgb(99, 110, 250); fill-opacity: 1; stroke: rgb(255, 255, 255); stroke-opacity: 1; opacity: 0.7;"/><g class="slicetext"><text data-notex="1" class="slicetext" text-anchor="middle" x="0" y="0" style="font-family: 'Open Sans', verdana, arial, sans-serif; font-size: 12px; fill: rgb(255, 255, 255); fill-opacity: 1; white-space: pre;" transform="translate(229.55914612341144,111.7569882618006)scale(0.14117742635112324)rotate(47.017543859649095)">R4THB0T</text></g></g><g class="slice"><path class="surface" d="M267.65100345575195,152.71516301123415L226.47650518362798,109.0727445168512A180,180 0,0,0 224.88222299231023,110.59543332380414L266.5881486615401,153.73028888253612A120,120 0,0,1 267.65100345575195,152.71516301123415Z" style="pointer-events: all; stroke-width: 1; fill: rgb(99, 110, 250); fill-opacity: 1; stroke: rgb(255, 255, 255); stroke-opacity: 1; opacity: 0.7;"/><g class="slicetext"><text data-notex="1" class="slicetext" text-anchor="middle" x="0" y="0" style="font-family: 'Open Sans', verdana, arial, sans-serif; font-size: 12px; fill: rgb(255, 255, 255); fill-opacity: 1; white-space: pre;" transform="translate(227.3763725538686,112.60231532852976)scale(0.14275187907596856)rotate(46.31578947368416)">Tumblr</text></g></g><g class="slice"><path class="surface" d="M266.5881486615401,153.73028888253612L224.88222299231023,110.59543332380414A180,180 0,0,0 223.30670969133595,112.13753408148045L265.53780646089064,154.7583560543203A120,120 0,0,1 266.5881486615401,153.73028888253612Z" style="pointer-events: all; stroke-width: 1; fill: rgb(99, 110, 250); fill-opacity: 1; stroke: rgb(255, 255, 255); stroke-opacity: 1; opacity: 0.7;"/><g class="slicetext"><text data-notex="1" class="slicetext" text-anchor="middle" x="0" y="0" style="font-family: 'Open Sans', verdana, arial, sans-serif; font-size: 12px; fill: rgb(255, 255, 255); fill-opacity: 1; white-space: pre;" transform="translate(226.73005813256512,115.02402926921476)scale(0.14069584055523382)rotate(45.614035087719344)">Twibble.io</text></g></g><g class="slice"><path class="surface" d="M265.53780646089064,154.7583560543203L223.30670969133595,112.13753408148045A180,180 0,0,0 174.60099823477717,280.43748483478373L233.06733215651812,266.95832322318915A120,120 0,0,1 265.53780646089064,154.7583560543203Z" style="pointer-events: all; stroke-width: 1; fill: rgb(239, 85, 59); fill-opacity: 1; stroke: rgb(255, 255, 255); stroke-opacity: 1; opacity: 0.7;"/><g class="slicetext"><text data-notex="1" class="slicetext" text-anchor="middle" x="0" y="0" style="font-family: 'Open Sans', verdana, arial, sans-serif; font-size: 12px; fill: rgb(68, 68, 68); fill-opacity: 1; white-space: pre;" transform="translate(205.88120767545246,203.098192204596)">iPhone</text></g></g><g class="slice"><path class="surface" d="M233.06733215651812,266.95832322318915L174.60099823477717,280.43748483478373A180,180 0,0,0 207.28032130037988,349.68634058932406L254.8535475335866,313.1242270595494A120,120 0,0,1 233.06733215651812,266.95832322318915Z" style="pointer-events: all; stroke-width: 1; fill: rgb(239, 85, 59); fill-opacity: 1; stroke: rgb(255, 255, 255); stroke-opacity: 1; opacity: 0.7;"/><g class="slicetext"><text data-notex="1" class="slicetext" text-anchor="middle" x="0" y="0" style="font-family: 'Open Sans', verdana, arial, sans-serif; font-size: 12px; fill: rgb(68, 68, 68); fill-opacity: 1; white-space: pre;" transform="translate(214.74486339536338,308.81334032446046)">Android</text></g></g><g class="slice"><path class="surface" d="M254.8535475335866,313.1242270595494L207.28032130037988,349.68634058932406A180,180 0,0,0 263.8451438545911,398.04221196428466L292.5634292363941,345.3614746428565A120,120 0,0,1 254.8535475335866,313.1242270595494Z" style="pointer-events: all; stroke-width: 1; fill: rgb(239, 85, 59); fill-opacity: 1; stroke: rgb(255, 255, 255); stroke-opacity: 1; opacity: 0.7;"/><g class="slicetext"><text data-notex="1" class="slicetext" text-anchor="middle" x="0" y="0" style="font-family: 'Open Sans', verdana, arial, sans-serif; font-size: 12px; fill: rgb(68, 68, 68); fill-opacity: 1; white-space: pre;" transform="translate(236.65053197029823,373.01936143167217)scale(0.6838677006387914)rotate(40.526315789473756)">Twitter Web App</text></g></g><g class="slice"><path class="surface" d="M292.5634292363941,345.3614746428565L263.8451438545911,398.04221196428466A180,180 0,0,0 269.7090570306715,401.10047944402913L296.47270468711434,347.40031962935274A120,120 0,0,1 292.5634292363941,345.3614746428565Z" style="pointer-events: all; stroke-width: 1; fill: rgb(239, 85, 59); fill-opacity: 1; stroke: rgb(255, 255, 255); stroke-opacity: 1; opacity: 0.7;"/><g class="slicetext"><text data-notex="1" class="slicetext" text-anchor="middle" x="0" y="0" style="font-family: 'Open Sans', verdana, arial, sans-serif; font-size: 12px; fill: rgb(68, 68, 68); fill-opacity: 1; white-space: pre;" transform="translate(274.4163244034589,388.85954686929466)scale(0.37940160409226364)rotate(-62.45614035087715)">TweetDeck</text></g></g><g class="slice"><path class="surface" d="M296.47270468711434,347.40031962935274L269.7090570306715,401.10047944402913A180,180 0,0,0 273.67904337529455,403.0187460996122L299.11936225019633,348.67916406640813A120,120 0,0,1 296.47270468711434,347.40031962935274Z" style="pointer-events: all; stroke-width: 1; fill: rgb(239, 85, 59); fill-opacity: 1; stroke: rgb(255, 255, 255); stroke-opacity: 1; opacity: 0.7;"/><g class="slicetext"><text data-notex="1" class="slicetext" text-anchor="middle" x="0" y="0" style="font-family: 'Open Sans', verdana, arial, sans-serif; font-size: 12px; fill: rgb(68, 68, 68); fill-opacity: 1; white-space: pre;" transform="translate(280.15105622513096,387.20064303630653)scale(0.23974973254497123)rotate(-64.21052631578948)">Nintendo Switch Share</text></g></g><g class="slice"><path class="surface" d="M299.11936225019633,348.67916406640813L273.67904337529455,403.0187460996122A180,180 0,0,0 275.68135920736063,403.9412688456895L300.45423947157377,349.2941792304597A120,120 0,0,1 299.11936225019633,348.67916406640813Z" style="pointer-events: all; stroke-width: 1; fill: rgb(239, 85, 59); fill-opacity: 1; stroke: rgb(255, 255, 255); stroke-opacity: 1; opacity: 0.7;"/><g class="slicetext"><text data-notex="1" class="slicetext" text-anchor="middle" x="0" y="0" style="font-family: 'Open Sans', verdana, arial, sans-serif; font-size: 12px; fill: rgb(68, 68, 68); fill-opacity: 1; white-space: pre;" transform="translate(276.43942302637777,401.3057059703605)scale(0.14341739029154948)rotate(-65.26315789473676)">Buffer</text></g></g><g class="slice"><path class="surface" d="M300.45423947157377,349.2941792304597L275.68135920736063,403.9412688456895A180,180 0,0,0 277.69482356246544,404.8391987979103L301.79654904164363,349.8927991986069A120,120 0,0,1 300.45423947157377,349.2941792304597Z" style="pointer-events: all; stroke-width: 1; fill: rgb(239, 85, 59); fill-opacity: 1; stroke: rgb(255, 255, 255); stroke-opacity: 1; opacity: 0.7;"/><g class="slicetext"><text data-notex="1" class="slicetext" text-anchor="middle" x="0" y="0" style="font-family: 'Open Sans', verdana, arial, sans-serif; font-size: 12px; fill: rgb(68, 68, 68); fill-opacity: 1; white-space: pre;" transform="translate(280.82625872059424,396.68441525286454)scale(0.13359182583111712)rotate(-65.96491228070181)">Flamingo for Android</text></g></g><g class="slice"><path class="surface" d="M301.79654904164363,349.8927991986069L277.69482356246544,404.8391987979103A180,180 0,0,0 279.7191344012616,405.712401257999L303.1460896008411,350.47493417199934A120,120 0,0,1 301.79654904164363,349.8927991986069Z" style="pointer-events: all; stroke-width: 1; fill: rgb(239, 85, 59); fill-opacity: 1; stroke: rgb(255, 255, 255); stroke-opacity: 1; opacity: 0.7;"/><g class="slicetext"><text data-notex="1" class="slicetext" text-anchor="middle" x="0" y="0" style="font-family: 'Open Sans', verdana, arial, sans-serif; font-size: 12px; fill: rgb(68, 68, 68); fill-opacity: 1; white-space: pre;" transform="translate(281.59107939793773,400.2669750829267)scale(0.13849292373506075)rotate(-66.66666666666663)">Sprout Social</text></g></g><g class="slice"><path class="surface" d="M303.1460896008411,350.47493417199934L279.7191344012616,405.712401257999A180,180 0,0,0 281.75398805732334,406.5607452370457L304.50265870488226,351.04049682469713A120,120 0,0,1 303.1460896008411,350.47493417199934Z" style="pointer-events: all; stroke-width: 1; fill: rgb(239, 85, 59); fill-opacity: 1; stroke: rgb(255, 255, 255); stroke-opacity: 1; opacity: 0.7;"/><g class="slicetext"><text data-notex="1" class="slicetext" text-anchor="middle" x="0" y="0" style="font-family: 'Open Sans', verdana, arial, sans-serif; font-size: 12px; fill: rgb(68, 68, 68); fill-opacity: 1; white-space: pre;" transform="translate(284.33394717968935,399.19321669580165)scale(0.1352023882219569)rotate(-67.36842105263156)">Twitter Web Client</text></g></g><g class="slice"><path class="surface" d="M304.50265870488226,351.04049682469713L281.75398805732334,406.5607452370457A180,180 0,0,0 283.79907928269915,407.3841034751557L305.86605285513275,351.5894023167705A120,120 0,0,1 304.50265870488226,351.04049682469713Z" style="pointer-events: all; stroke-width: 1; fill: rgb(239, 85, 59); fill-opacity: 1; stroke: rgb(255, 255, 255); stroke-opacity: 1; opacity: 0.7;"/><g class="slicetext"><text data-notex="1" class="slicetext" text-anchor="middle" x="0" y="0" style="font-family: 'Open Sans', verdana, arial, sans-serif; font-size: 12px; fill: rgb(68, 68, 68); fill-opacity: 1; white-space: pre;" transform="translate(284.3522318292241,404.9056473536931)scale(0.14380259801470202)rotate(-68.07017543859638)">dlvr.it</text></g></g><g class="slice"><path class="surface" d="M305.86605285513275,351.5894023167705L283.79907928269915,407.3841034751557A180,180 0,0,0 285.85410129370183,408.1823524605401L307.2360675291346,352.12156830702673A120,120 0,0,1 305.86605285513275,351.5894023167705Z" style="pointer-events: all; stroke-width: 1; fill: rgb(239, 85, 59); fill-opacity: 1; stroke: rgb(255, 255, 255); stroke-opacity: 1; opacity: 0.7;"/><g class="slicetext"><text data-notex="1" class="slicetext" text-anchor="middle" x="0" y="0" style="font-family: 'Open Sans', verdana, arial, sans-serif; font-size: 12px; fill: rgb(68, 68, 68); fill-opacity: 1; white-space: pre;" transform="translate(286.150812184318,406.2932420102566)scale(0.1448594766476834)rotate(-68.77192982456143)">iPad</text></g></g><g class="slice"><path class="surface" d="M307.2360675291346,352.12156830702673L285.85410129370183,408.1823524605401A180,180 0,0,0 469.4572517482918,374.6475584804464L429.63816783219454,329.76503898696427A120,120 0,0,1 307.2360675291346,352.12156830702673Z" style="pointer-events: all; stroke-width: 1; fill: rgb(0, 204, 150); fill-opacity: 1; stroke: rgb(255, 255, 255); stroke-opacity: 1; opacity: 0.7;"/><g class="slicetext"><text data-notex="1" class="slicetext" text-anchor="middle" x="0" y="0" style="font-family: 'Open Sans', verdana, arial, sans-serif; font-size: 12px; fill: rgb(68, 68, 68); fill-opacity: 1; white-space: pre;" transform="translate(376.9201214047048,392.3557567367686)">iPhone</text></g></g><g class="slice"><path class="surface" d="M429.63816783219454,329.76503898696427L469.4572517482918,374.6475584804464A180,180 0,0,0 515.4964260723993,310.78794358690504L460.3309507149329,287.19196239127A120,120 0,0,1 429.63816783219454,329.76503898696427Z" style="pointer-events: all; stroke-width: 1; fill: rgb(0, 204, 150); fill-opacity: 1; stroke: rgb(255, 255, 255); stroke-opacity: 1; opacity: 0.7;"/><g class="slicetext"><text data-notex="1" class="slicetext" text-anchor="middle" x="0" y="0" style="font-family: 'Open Sans', verdana, arial, sans-serif; font-size: 12px; fill: rgb(68, 68, 68); fill-opacity: 1; white-space: pre;" transform="translate(472.07412845948033,332.51817360833707)">Android</text></g></g><g class="slice"><path class="surface" d="M460.3309507149329,287.19196239127L515.4964260723993,310.78794358690504A180,180 0,0,0 529.3388537277023,255.41348577168105L469.55923581846815,250.2756571811207A120,120 0,0,1 460.3309507149329,287.19196239127Z" style="pointer-events: all; stroke-width: 1; fill: rgb(0, 204, 150); fill-opacity: 1; stroke: rgb(255, 255, 255); stroke-opacity: 1; opacity: 0.7;"/><g class="slicetext"><text data-notex="1" class="slicetext" text-anchor="middle" x="0" y="0" style="font-family: 'Open Sans', verdana, arial, sans-serif; font-size: 12px; fill: rgb(68, 68, 68); fill-opacity: 1; white-space: pre;" transform="translate(495.0481226195499,279.14223459163145)scale(0.5831376138099831)rotate(14.035087719298247)">Twitter Web App</text></g></g><g class="slice"><path class="surface" d="M469.55923581846815,250.2756571811207L529.3388537277023,255.41348577168105A180,180 0,0,0 529.6625792450462,251.01624341676865L469.7750528300308,247.34416227784575A120,120 0,0,1 469.55923581846815,250.2756571811207Z" style="pointer-events: all; stroke-width: 1; fill: rgb(0, 204, 150); fill-opacity: 1; stroke: rgb(255, 255, 255); stroke-opacity: 1; opacity: 0.7;"/><g class="slicetext"><text data-notex="1" class="slicetext" text-anchor="middle" x="0" y="0" style="font-family: 'Open Sans', verdana, arial, sans-serif; font-size: 12px; fill: rgb(68, 68, 68); fill-opacity: 1; white-space: pre;" transform="translate(515.2859558579248,253.36592926803823)scale(0.24897977973717686)rotate(4.21052631578948)">Twitter Web Client</text></g></g><g class="slice"><path class="surface" d="M469.7750528300308,247.34416227784575L529.6625792450462,251.01624341676865A180,180 0,0,0 529.8785042285715,246.6123911326991L469.91900281904765,244.40826075513272A120,120 0,0,1 469.7750528300308,247.34416227784575Z" style="pointer-events: all; stroke-width: 1; fill: rgb(0, 204, 150); fill-opacity: 1; stroke: rgb(255, 255, 255); stroke-opacity: 1; opacity: 0.7;"/><g class="slicetext"><text data-notex="1" class="slicetext" text-anchor="middle" x="0" y="0" style="font-family: 'Open Sans', verdana, arial, sans-serif; font-size: 12px; fill: rgb(68, 68, 68); fill-opacity: 1; white-space: pre;" transform="translate(526.0483990120844,249.99491142010098)scale(0.28382202173669474)rotate(2.807017543859672)">iPad</text></g></g><g class="slice"><path class="surface" d="M469.91900281904765,244.40826075513272L529.8785042285715,246.6123911326991A180,180 0,0,0 529.94599850406,244.4088119008245L469.9639990027066,242.939207933883A120,120 0,0,1 469.91900281904765,244.40826075513272Z" style="pointer-events: all; stroke-width: 1; fill: rgb(0, 204, 150); fill-opacity: 1; stroke: rgb(255, 255, 255); stroke-opacity: 1; opacity: 0.7;"/><g class="slicetext"><text data-notex="1" class="slicetext" text-anchor="middle" x="0" y="0" style="font-family: 'Open Sans', verdana, arial, sans-serif; font-size: 12px; fill: rgb(68, 68, 68); fill-opacity: 1; white-space: pre;" transform="translate(521.9205792389621,245.91287565222018)scale(0.13482753397909475)rotate(1.7543859649122737)">Limited Edition Bot</text></g></g><g class="slice"><path class="surface" d="M469.9639990027066,242.939207933883L529.94599850406,244.4088119008245A180,180 0,0,0 529.9864991196989,242.20457130404168L469.9909994131326,241.46971420269443A120,120 0,0,1 469.9639990027066,242.939207933883Z" style="pointer-events: all; stroke-width: 1; fill: rgb(0, 204, 150); fill-opacity: 1; stroke: rgb(255, 255, 255); stroke-opacity: 1; opacity: 0.7;"/><g class="slicetext"><text data-notex="1" class="slicetext" text-anchor="middle" x="0" y="0" style="font-family: 'Open Sans', verdana, arial, sans-serif; font-size: 12px; fill: rgb(68, 68, 68); fill-opacity: 1; white-space: pre;" transform="translate(525.1303455360379,243.88956685485408)scale(0.14001126929374316)rotate(1.0526315789473983)">TweetDeck</text></g></g><g class="slice"><path class="surface" d="M469.9909994131326,241.46971420269443L529.9864991196989,242.20457130404168A180,180 0,0,0 530,240.00000000000006L470,240.00000000000003A120,120 0,0,1 469.9909994131326,241.46971420269443Z" style="pointer-events: all; stroke-width: 1; fill: rgb(0, 204, 150); fill-opacity: 1; stroke: rgb(255, 255, 255); stroke-opacity: 1; opacity: 0.7;"/><g class="slicetext"><text data-notex="1" class="slicetext" text-anchor="middle" x="0" y="0" style="font-family: 'Open Sans', verdana, arial, sans-serif; font-size: 12px; fill: rgb(68, 68, 68); fill-opacity: 1; white-space: pre;" transform="translate(522.9039063614968,241.71218247527128)scale(0.13619283092845463)rotate(0.35087719298240927)">Tweetbot for iΟS</text></g></g></g></g><g class="glimages"/><defs id="topdefs-d207f1"><g class="clips"/></defs><g class="layer-above"><g class="imagelayer"/><g class="shapelayer"/></g><g class="infolayer"><g class="g-gtitle"/></g></svg>