<svg class="main-svg" xmlns="http://www.w3.org/2000/svg" xmlns:xlink="http://www.w3.org/1999/xlink" width="700" height="500" style="" viewBox="0 0 700 500"><rect x="0" y="0" width="700" height="500" style="fill: rgb(255, 255, 255); fill-opacity: 1;"/><defs id="defs-1dd7f6"><g class="clips"/><g class="gradients"/></defs><g class="bglayer"/><g class="layer-below"><g class="imagelayer"/><g class="shapelayer"/></g><g class="cartesianlayer"/><g class="polarlayer"/><g class="ternarylayer"/><g class="geolayer"/><g class="funnelarealayer"/><g class="pielayer"/><g class="treemaplayer"/><g class="sunburstlayer"><g class="trace sunburst" stroke-linejoin="round" style="opacity: 1;"><g class="slice"><path class="surface" d="M350,240A0,0 0,1,0 350,240A0,0 0,1,0 350,240ZM440,240A90,90 0,1,1 260,240A90,90 0,1,1 440,240.00000000000003Z" style="pointer-events: all; stroke-width: 1; fill: rgb(0, 0, 0); fill-opacity: 0; stroke: rgb(255, 255, 255); stroke-opacity: 1;"/><g class="slicetext"><text data-notex="1" class="slicetext" text-anchor="middle" x="0" y="0" style="font-family: 'Open Sans', verdana, arial, sans-serif; font-size: 12px; fill: rgb(42, 63, 95); fill-opacity: 1; white-space: pre;" transform="translate(349.96875,244.796875)">source</text></g></g><g class="slice"><path class="surface" d="M440,240L530,240A180,180 0,0,0 244.19865458735484,94.37694101250946L297.09932729367745,167.18847050625473A90,90 0,0,1 440,240Z" style="pointer-events: all; stroke-width: 1; fill: rgb(99, 110, 250); fill-opacity: 1; stroke: rgb(255, 255, 255); stroke-opacity: 1; opacity: 0.7;"/><g class="slicetext"><text data-notex="1" class="slicetext" text-anchor="middle" x="0" y="0" style="font-family: 'Open Sans', verdana, arial, sans-serif; font-size: 12px; fill: rgb(255, 255, 255); fill-opacity: 1; white-space: pre;" transform="translate(411.2574674648388,124.51099423457032)">iPhone</text></g></g><g class="slice"><path class="surface" d="M297.09932729367745,167.18847050625473L244.19865458735484,94.37694101250946A180,180 0,0,0 221.9235781023287,366.47699456379286L285.9617890511644,303.23849728189646A90,90 0,0,1 297.09932729367745,167.18847050625473Z" style="pointer-events: all; stroke-width: 1; fill: rgb(239, 85, 59); fill-opacity: 1; stroke: rgb(255, 255, 255); stroke-opacity: 1; opacity: 0.7;"/><g class="slicetext"><text data-notex="1" class="slicetext" text-anchor="middle" x="0" y="0" style="font-family: 'Open Sans', verdana, arial, sans-serif; font-size: 12px; fill: rgb(68, 68, 68); fill-opacity: 1; white-space: pre;" transform="translate(215.84853721540597,233.78214243829876)">Android</text></g></g><g class="slice"><path class="surface" d="M285.9617890511644,303.23849728189646L221.9235781023287,366.47699456379286A180,180 0,0,0 450.2376109678739,389.50726185524627L400.11880548393697,314.75363092762313A90,90 0,0,1 285.9617890511644,303.23849728189646Z" style="pointer-events: all; stroke-width: 1; fill: rgb(0, 204, 150); fill-opacity: 1; stroke: rgb(255, 255, 255); stroke-opacity: 1; opacity: 0.7;"/><g class="slicetext"><text data-notex="1" class="slicetext" text-anchor="middle" x="0" y="0" style="font-family: 'Open Sans', verdana, arial, sans-serif; font-size: 12px; fill: rgb(68, 68, 68); fill-opacity: 1; white-space: pre;" transform="translate(336.1068138323956,381.78005754149734)rotate(5.759999999999991)">Twitter Web App</text></g></g><g class="slice"><path class="surface" d="M400.11880548393697,314.75363092762313L450.2376109678739,389.50726185524627A180,180 0,0,0 478.07642189767137,366.4769945637928L414.0382109488357,303.2384972818964A90,90 0,0,1 400.11880548393697,314.75363092762313Z" style="pointer-events: all; stroke-width: 1; fill: rgb(171, 99, 250); fill-opacity: 1; stroke: rgb(255, 255, 255); stroke-opacity: 1; opacity: 0.7;"/><g class="slicetext"><text data-notex="1" class="slicetext" text-anchor="middle" x="0" y="0" style="font-family: 'Open Sans', verdana, arial, sans-serif; font-size: 12px; fill: rgb(68, 68, 68); fill-opacity: 1; white-space: pre;" transform="translate(434.22282210247045,349.33331015887785)rotate(50.39999999999998)">Instagram</text></g></g><g class="slice"><path class="surface" d="M414.0382109488357,303.2384972818964L478.07642189767137,366.4769945637928A180,180 0,0,0 495.6230589874906,345.80134541264505L422.8115294937453,292.90067270632255A90,90 0,0,1 414.0382109488357,303.2384972818964Z" style="pointer-events: all; stroke-width: 1; fill: rgb(255, 161, 90); fill-opacity: 1; stroke: rgb(255, 255, 255); stroke-opacity: 1; opacity: 0.7;"/><g class="slicetext"><text data-notex="1" class="slicetext" text-anchor="middle" x="0" y="0" style="font-family: 'Open Sans', verdana, arial, sans-serif; font-size: 12px; fill: rgb(68, 68, 68); fill-opacity: 1; white-space: pre;" transform="translate(469.6905352471625,347.8682630983035)rotate(40.319999999999936)">iPad</text></g></g><g class="slice"><path class="surface" d="M422.8115294937453,292.90067270632255L495.6230589874906,345.80134541264505A180,180 0,0,0 505.5062150947104,330.65217629443686L427.75310754735517,285.3260881472184A90,90 0,0,1 422.8115294937453,292.90067270632255Z" style="pointer-events: all; stroke-width: 1; fill: rgb(25, 211, 243); fill-opacity: 1; stroke: rgb(255, 255, 255); stroke-opacity: 1; opacity: 0.7;"/><g class="slicetext"><text data-notex="1" class="slicetext" text-anchor="middle" x="0" y="0" style="font-family: 'Open Sans', verdana, arial, sans-serif; font-size: 12px; fill: rgb(68, 68, 68); fill-opacity: 1; white-space: pre;" transform="translate(474.5608514550801,326.01145932677235)scale(0.829219834090572)rotate(33.120000000000005)">TweetDeck</text></g></g><g class="slice"><path class="surface" d="M427.75310754735517,285.3260881472184L505.5062150947104,330.65217629443686A180,180 0,0,0 511.8929452819468,318.6808379971678L430.9464726409734,279.3404189985839A90,90 0,0,1 427.75310754735517,285.3260881472184Z" style="pointer-events: all; stroke-width: 1; fill: rgb(255, 102, 146); fill-opacity: 1; stroke: rgb(255, 255, 255); stroke-opacity: 1; opacity: 0.7;"/><g class="slicetext"><text data-notex="1" class="slicetext" text-anchor="middle" x="0" y="0" style="font-family: 'Open Sans', verdana, arial, sans-serif; font-size: 12px; fill: rgb(68, 68, 68); fill-opacity: 1; white-space: pre;" transform="translate(482.9231828144468,314.34375647671305)scale(0.630697955008038)rotate(28.079999999999984)">Hootsuite Inc.</text></g></g><g class="slice"><path class="surface" d="M430.9464726409734,279.3404189985839L511.8929452819468,318.6808379971678A180,180 0,0,0 517.3597674598852,306.262419483242L433.6798837299426,273.131209741621A90,90 0,0,1 430.9464726409734,279.3404189985839Z" style="pointer-events: all; stroke-width: 1; fill: rgb(182, 232, 128); fill-opacity: 1; stroke: rgb(255, 255, 255); stroke-opacity: 1; opacity: 0.7;"/><g class="slicetext"><text data-notex="1" class="slicetext" text-anchor="middle" x="0" y="0" style="font-family: 'Open Sans', verdana, arial, sans-serif; font-size: 12px; fill: rgb(68, 68, 68); fill-opacity: 1; white-space: pre;" transform="translate(483.55257078136896,301.81408619035756)scale(0.576543365302499)rotate(23.759999999999934)">Twitter Web Client</text></g></g><g class="slice"><path class="surface" d="M433.6798837299426,273.131209741621L517.3597674598852,306.262419483242A180,180 0,0,0 520.477694899054,297.76984976529764L435.238847449527,268.8849248826488A90,90 0,0,1 433.6798837299426,273.131209741621Z" style="pointer-events: all; stroke-width: 1; fill: rgb(255, 151, 255); fill-opacity: 1; stroke: rgb(255, 255, 255); stroke-opacity: 1; opacity: 0.7;"/><g class="slicetext"><text data-notex="1" class="slicetext" text-anchor="middle" x="0" y="0" style="font-family: 'Open Sans', verdana, arial, sans-serif; font-size: 12px; fill: rgb(68, 68, 68); fill-opacity: 1; white-space: pre;" transform="translate(499.6910818548283,297.38119092140266)scale(0.4744119216819026)rotate(20.159999999999968)">Sprout Social</text></g></g><g class="slice"><path class="surface" d="M435.238847449527,268.8849248826488L520.477694899054,297.76984976529764A180,180 0,0,0 522.5339220231277,291.30346724459554L436.26696101156386,265.6517336222978A90,90 0,0,1 435.238847449527,268.8849248826488Z" style="pointer-events: all; stroke-width: 1; fill: rgb(254, 203, 82); fill-opacity: 1; stroke: rgb(255, 255, 255); stroke-opacity: 1; opacity: 0.7;"/><g class="slicetext"><text data-notex="1" class="slicetext" text-anchor="middle" x="0" y="0" style="font-family: 'Open Sans', verdana, arial, sans-serif; font-size: 12px; fill: rgb(68, 68, 68); fill-opacity: 1; white-space: pre;" transform="translate(513.2378161766648,293.9970025021544)scale(0.4151061366089583)rotate(17.63999999999993)">Buffer</text></g></g><g class="slice"><path class="surface" d="M436.26696101156386,265.6517336222978L522.5339220231277,291.30346724459554A180,180 0,0,0 523.7686949899894,286.95147113218127L436.8843474949947,263.47573556609063A90,90 0,0,1 436.26696101156386,265.6517336222978Z" style="pointer-events: all; stroke-width: 1; fill: rgb(198, 202, 253); fill-opacity: 1; stroke: rgb(255, 255, 255); stroke-opacity: 1; opacity: 0.7;"/><g class="slicetext"><text data-notex="1" class="slicetext" text-anchor="middle" x="0" y="0" style="font-family: 'Open Sans', verdana, arial, sans-serif; font-size: 12px; fill: rgb(68, 68, 68); fill-opacity: 1; white-space: pre;" transform="translate(511.03724175826096,286.9981401755351)scale(0.26227169431305886)rotate(15.839999999999918)">Echobox Social</text></g></g><g class="slice"><path class="surface" d="M436.8843474949947,263.47573556609063L523.7686949899894,286.95147113218127A180,180 0,0,0 524.8937119246414,282.5698194642702L437.4468559623207,261.28490973213513A90,90 0,0,1 436.8843474949947,263.47573556609063Z" style="pointer-events: all; stroke-width: 1; fill: rgb(247, 167, 153); fill-opacity: 1; stroke: rgb(255, 255, 255); stroke-opacity: 1; opacity: 0.7;"/><g class="slicetext"><text data-notex="1" class="slicetext" text-anchor="middle" x="0" y="0" style="font-family: 'Open Sans', verdana, arial, sans-serif; font-size: 12px; fill: rgb(68, 68, 68); fill-opacity: 1; white-space: pre;" transform="translate(511.8824419886637,282.85830158087504)scale(0.2612748911898849)rotate(14.39999999999992)">WordPress.com</text></g></g><g class="slice"><path class="surface" d="M437.4468559623207,261.28490973213513L524.8937119246414,282.5698194642702A180,180 0,0,0 525.9082622422749,278.16127978596955L437.95413112113744,259.0806398929848A90,90 0,0,1 437.4468559623207,261.28490973213513Z" style="pointer-events: all; stroke-width: 1; fill: rgb(51, 255, 201); fill-opacity: 1; stroke: rgb(255, 255, 255); stroke-opacity: 1; opacity: 0.7;"/><g class="slicetext"><text data-notex="1" class="slicetext" text-anchor="middle" x="0" y="0" style="font-family: 'Open Sans', verdana, arial, sans-serif; font-size: 12px; fill: rgb(68, 68, 68); fill-opacity: 1; white-space: pre;" transform="translate(520.2041524788062,280.5806162100725)scale(0.2866629248809049)rotate(12.959999999999923)">dlvr.it</text></g></g><g class="slice"><path class="surface" d="M437.95413112113744,259.0806398929848L525.9082622422749,278.16127978596955A180,180 0,0,0 526.3739094291645,275.947796492593L438.18695471458227,257.97389824629647A90,90 0,0,1 437.95413112113744,259.0806398929848Z" style="pointer-events: all; stroke-width: 1; fill: rgb(224, 198, 253); fill-opacity: 1; stroke: rgb(255, 255, 255); stroke-opacity: 1; opacity: 0.7;"/><g class="slicetext"><text data-notex="1" class="slicetext" text-anchor="middle" x="0" y="0" style="font-family: 'Open Sans', verdana, arial, sans-serif; font-size: 12px; fill: rgb(68, 68, 68); fill-opacity: 1; white-space: pre;" transform="translate(518.4390875666811,276.11390365406623)scale(0.1386457873561505)rotate(11.879999999999882)">AdvisorStream v2</text></g></g><g class="slice"><path class="surface" d="M438.18695471458227,257.97389824629647L526.3739094291645,275.947796492593A180,180 0,0,0 526.811705131164,273.7286366254301L438.405852565582,256.86431831271506A90,90 0,0,1 438.18695471458227,257.97389824629647Z" style="pointer-events: all; stroke-width: 1; fill: rgb(255, 219, 192); fill-opacity: 1; stroke: rgb(255, 255, 255); stroke-opacity: 1; opacity: 0.7;"/><g class="slicetext"><text data-notex="1" class="slicetext" text-anchor="middle" x="0" y="0" style="font-family: 'Open Sans', verdana, arial, sans-serif; font-size: 12px; fill: rgb(68, 68, 68); fill-opacity: 1; white-space: pre;" transform="translate(516.8371948975955,273.57441158490735)scale(0.1351476765946803)rotate(11.159999999999911)">AskDavid.com Services</text></g></g><g class="slice"><path class="surface" d="M438.405852565582,256.86431831271506L526.811705131164,273.7286366254301A180,180 0,0,0 527.2215802152571,271.50415061554935L438.61079010762853,255.75207530777467A90,90 0,0,1 438.405852565582,256.86431831271506Z" style="pointer-events: all; stroke-width: 1; fill: rgb(122, 230, 248); fill-opacity: 1; stroke: rgb(255, 255, 255); stroke-opacity: 1; opacity: 0.7;"/><g class="slicetext"><text data-notex="1" class="slicetext" text-anchor="middle" x="0" y="0" style="font-family: 'Open Sans', verdana, arial, sans-serif; font-size: 12px; fill: rgb(68, 68, 68); fill-opacity: 1; white-space: pre;" transform="translate(521.5155677230254,272.29815575533854)scale(0.14256301958829193)rotate(10.439999999999884)">Bad Pun Bot</text></g></g><g class="slice"><path class="surface" d="M438.61079010762853,255.75207530777467L527.2215802152571,271.50415061554935A180,180 0,0,0 527.6034699574163,269.2746897350787L438.80173497870817,254.63734486753935A90,90 0,0,1 438.61079010762853,255.75207530777467Z" style="pointer-events: all; stroke-width: 1; fill: rgb(255, 204, 219); fill-opacity: 1; stroke: rgb(255, 255, 255); stroke-opacity: 1; opacity: 0.7;"/><g class="slicetext"><text data-notex="1" class="slicetext" text-anchor="middle" x="0" y="0" style="font-family: 'Open Sans', verdana, arial, sans-serif; font-size: 12px; fill: rgb(68, 68, 68); fill-opacity: 1; white-space: pre;" transform="translate(520.1681940540051,269.8278752054568)scale(0.13959121268636918)rotate(9.719999999999914)">ChrisNextScripts</text></g></g><g class="slice"><path class="surface" d="M438.80173497870817,254.63734486753935L527.6034699574163,269.2746897350787A180,180 0,0,0 527.9573140528246,267.0406060417359L438.9786570264123,253.52030302086794A90,90 0,0,1 438.80173497870817,254.63734486753935Z" style="pointer-events: all; stroke-width: 1; fill: rgb(232, 248, 214); fill-opacity: 1; stroke: rgb(255, 255, 255); stroke-opacity: 1; opacity: 0.7;"/><g class="slicetext"><text data-notex="1" class="slicetext" text-anchor="middle" x="0" y="0" style="font-family: 'Open Sans', verdana, arial, sans-serif; font-size: 12px; fill: rgb(68, 68, 68); fill-opacity: 1; white-space: pre;" transform="translate(521.6246793357834,267.86972134465793)scale(0.14146375049590704)rotate(8.99999999999983)">FPNextScripts</text></g></g><g class="slice"><path class="surface" d="M438.9786570264123,253.52030302086794L527.9573140528246,267.0406060417359A180,180 0,0,0 528.2830566253973,264.8022523232345L439.14152831269865,252.40112616161724A90,90 0,0,1 438.9786570264123,253.52030302086794Z" style="pointer-events: all; stroke-width: 1; fill: rgb(255, 253, 255); fill-opacity: 1; stroke: rgb(255, 255, 255); stroke-opacity: 1; opacity: 0.7;"/><g class="slicetext"><text data-notex="1" class="slicetext" text-anchor="middle" x="0" y="0" style="font-family: 'Open Sans', verdana, arial, sans-serif; font-size: 12px; fill: rgb(68, 68, 68); fill-opacity: 1; white-space: pre;" transform="translate(525.4008370305689,266.24015477940867)scale(0.1473915240751617)rotate(8.279999999999916)">IFTTT</text></g></g><g class="slice"><path class="surface" d="M439.14152831269865,252.40112616161724L528.2830566253973,264.8022523232345A180,180 0,0,0 528.5806462366061,262.55998204157436L439.29032311830304,251.27999102078718A90,90 0,0,1 439.14152831269865,252.40112616161724Z" style="pointer-events: all; stroke-width: 1; fill: rgb(255, 233, 183); fill-opacity: 1; stroke: rgb(255, 255, 255); stroke-opacity: 1; opacity: 0.7;"/><g class="slicetext"><text data-notex="1" class="slicetext" text-anchor="middle" x="0" y="0" style="font-family: 'Open Sans', verdana, arial, sans-serif; font-size: 12px; fill: rgb(68, 68, 68); fill-opacity: 1; white-space: pre;" transform="translate(523.4762571363383,263.71780768515396)scale(0.1434999166461991)rotate(7.559999999999832)">LaterMedia</text></g></g><g class="slice"><path class="surface" d="M439.29032311830304,251.27999102078718L528.5806462366061,262.55998204157436A180,180 0,0,0 528.8500358936016,260.3141492772263L439.4250179468008,250.15707463861315A90,90 0,0,1 439.29032311830304,251.27999102078718Z" style="pointer-events: all; stroke-width: 1; fill: rgb(8, 25, 239); fill-opacity: 1; stroke: rgb(255, 255, 255); stroke-opacity: 1; opacity: 0.7;"/><g class="slicetext"><text data-notex="1" class="slicetext" text-anchor="middle" x="0" y="0" style="font-family: 'Open Sans', verdana, arial, sans-serif; font-size: 12px; fill: rgb(255, 255, 255); fill-opacity: 1; white-space: pre;" transform="translate(524.7553447811833,261.6635172638741)scale(0.14519122767636053)rotate(6.839999999999861)">Mention </text></g></g><g class="slice"><path class="surface" d="M439.4250179468008,250.15707463861315L528.8500358936016,260.3141492772263A180,180 0,0,0 529.091183056634,258.0651086732182L439.545591528317,249.0325543366091A90,90 0,0,1 439.4250179468008,250.15707463861315Z" style="pointer-events: all; stroke-width: 1; fill: rgb(181, 39, 15); fill-opacity: 1; stroke: rgb(255, 255, 255); stroke-opacity: 1; opacity: 0.7;"/><g class="slicetext"><text data-notex="1" class="slicetext" text-anchor="middle" x="0" y="0" style="font-family: 'Open Sans', verdana, arial, sans-serif; font-size: 12px; fill: rgb(255, 255, 255); fill-opacity: 1; white-space: pre;" transform="translate(522.2493335721782,259.14677404010104)scale(0.14049819650324036)rotate(6.119999999999834)">Parkbench.com</text></g></g><g class="slice"><path class="surface" d="M439.545591528317,249.0325543366091L529.091183056634,258.0651086732182A180,180 0,0,0 529.3040496457711,255.8132153791333L439.65202482288555,247.90660768956667A90,90 0,0,1 439.545591528317,249.0325543366091Z" style="pointer-events: all; stroke-width: 1; fill: rgb(0, 102, 75); fill-opacity: 1; stroke: rgb(255, 255, 255); stroke-opacity: 1; opacity: 0.7;"/><g class="slicetext"><text data-notex="1" class="slicetext" text-anchor="middle" x="0" y="0" style="font-family: 'Open Sans', verdana, arial, sans-serif; font-size: 12px; fill: rgb(255, 255, 255); fill-opacity: 1; white-space: pre;" transform="translate(523.7718700161815,257.1138172119589)scale(0.14269454508805549)rotate(5.399999999999864)">Postfity.com</text></g></g><g class="slice"><path class="surface" d="M439.65202482288555,247.90660768956667L529.3040496457711,255.8132153791333A180,180 0,0,0 529.4886020469105,253.5588249950274L439.74430102345525,246.7794124975137A90,90 0,0,1 439.65202482288555,247.90660768956667Z" style="pointer-events: all; stroke-width: 1; fill: rgb(118, 8, 239); fill-opacity: 1; stroke: rgb(255, 255, 255); stroke-opacity: 1; opacity: 0.7;"/><g class="slicetext"><text data-notex="1" class="slicetext" text-anchor="middle" x="0" y="0" style="font-family: 'Open Sans', verdana, arial, sans-serif; font-size: 12px; fill: rgb(255, 255, 255); fill-opacity: 1; white-space: pre;" transform="translate(524.678785958599,254.99235348171567)scale(0.14388928665507078)rotate(4.679999999999836)">SocialFlow</text></g></g><g class="slice"><path class="surface" d="M439.74430102345525,246.7794124975137L529.4886020469105,253.5588249950274A180,180 0,0,0 529.6448111170889,251.30229351527592L439.82240555854446,245.65114675763795A90,90 0,0,1 439.74430102345525,246.7794124975137Z" style="pointer-events: all; stroke-width: 1; fill: rgb(243, 105, 0); fill-opacity: 1; stroke: rgb(255, 255, 255); stroke-opacity: 1; opacity: 0.7;"/><g class="slicetext"><text data-notex="1" class="slicetext" text-anchor="middle" x="0" y="0" style="font-family: 'Open Sans', verdana, arial, sans-serif; font-size: 12px; fill: rgb(68, 68, 68); fill-opacity: 1; white-space: pre;" transform="translate(523.7297257174654,252.7092242001843)scale(0.14198862443740387)rotate(3.959999999999866)">SocialOomph</text></g></g><g class="slice"><path class="surface" d="M439.82240555854446,245.65114675763795L529.6448111170889,251.30229351527592A180,180 0,0,0 529.7726521890831,249.043977272358L439.8863260945416,244.521988636179A90,90 0,0,1 439.82240555854446,245.65114675763795Z" style="pointer-events: all; stroke-width: 1; fill: rgb(8, 136, 158); fill-opacity: 1; stroke: rgb(255, 255, 255); stroke-opacity: 1; opacity: 0.7;"/><g class="slicetext"><text data-notex="1" class="slicetext" text-anchor="middle" x="0" y="0" style="font-family: 'Open Sans', verdana, arial, sans-serif; font-size: 12px; fill: rgb(255, 255, 255); fill-opacity: 1; white-space: pre;" transform="translate(524.0000230437125,250.53320848944733)scale(0.1422062032503842)rotate(3.2399999999997817)">Squarespace</text></g></g><g class="slice"><path class="surface" d="M439.8863260945416,244.521988636179L529.7726521890831,249.043977272358A180,180 0,0,0 529.8721050753061,246.78423288058767L439.93605253765304,243.39211644029385A90,90 0,0,1 439.8863260945416,244.521988636179Z" style="pointer-events: all; stroke-width: 1; fill: rgb(255, 0, 73); fill-opacity: 1; stroke: rgb(255, 255, 255); stroke-opacity: 1; opacity: 0.7;"/><g class="slicetext"><text data-notex="1" class="slicetext" text-anchor="middle" x="0" y="0" style="font-family: 'Open Sans', verdana, arial, sans-serif; font-size: 12px; fill: rgb(255, 255, 255); fill-opacity: 1; white-space: pre;" transform="translate(521.6231280381323,248.21605609696095)scale(0.1380408358284855)rotate(2.519999999999868)">Streamlabs Twitter</text></g></g><g class="slice"><path class="surface" d="M439.93605253765304,243.39211644029385L529.8721050753061,246.78423288058767A180,180 0,0,0 529.9431540709941,244.5234171798002L439.97157703549703,242.26170858990008A90,90 0,0,1 439.93605253765304,243.39211644029385Z" style="pointer-events: all; stroke-width: 1; fill: rgb(132, 216, 42); fill-opacity: 1; stroke: rgb(255, 255, 255); stroke-opacity: 1; opacity: 0.7;"/><g class="slicetext"><text data-notex="1" class="slicetext" text-anchor="middle" x="0" y="0" style="font-family: 'Open Sans', verdana, arial, sans-serif; font-size: 12px; fill: rgb(68, 68, 68); fill-opacity: 1; white-space: pre;" transform="translate(526.6816707280991,246.25471937672705)scale(0.14633019570542366)rotate(1.799999999999784)">Tumblr</text></g></g><g class="slice"><path class="surface" d="M439.97157703549703,242.26170858990008L529.9431540709941,244.5234171798002A180,180 0,0,0 529.9857879566869,242.26188717900288L439.99289397834343,241.13094358950144A90,90 0,0,1 439.97157703549703,242.26170858990008Z" style="pointer-events: all; stroke-width: 1; fill: rgb(255, 49, 255); fill-opacity: 1; stroke: rgb(255, 255, 255); stroke-opacity: 1; opacity: 0.7;"/><g class="slicetext"><text data-notex="1" class="slicetext" text-anchor="middle" x="0" y="0" style="font-family: 'Open Sans', verdana, arial, sans-serif; font-size: 12px; fill: rgb(68, 68, 68); fill-opacity: 1; white-space: pre;" transform="translate(527.0919335270579,244.04307028469134)scale(0.14685506912557175)rotate(1.0799999999998136)">Vimeo</text></g></g><g class="slice"><path class="surface" d="M439.99289397834343,241.13094358950144L529.9857879566869,242.26188717900288A180,180 0,0,0 530,239.9999999999994L440,239.99999999999972A90,90 0,0,1 439.99289397834343,241.13094358950144Z" style="pointer-events: all; stroke-width: 1; fill: rgb(233, 164, 1); fill-opacity: 1; stroke: rgb(255, 255, 255); stroke-opacity: 1; opacity: 0.7;"/><g class="slicetext"><text data-notex="1" class="slicetext" text-anchor="middle" x="0" y="0" style="font-family: 'Open Sans', verdana, arial, sans-serif; font-size: 12px; fill: rgb(68, 68, 68); fill-opacity: 1; white-space: pre;" transform="translate(524.825200485756,241.78476894981674)scale(0.14306852201623432)rotate(0.35999999999978627)">Zoho Social</text></g></g></g></g><g class="glimages"/><defs id="topdefs-1dd7f6"><g class="clips"/></defs><g class="layer-above"><g class="imagelayer"/><g class="shapelayer"/></g><g class="infolayer"><g class="g-gtitle"/></g></svg>