<svg class="main-svg" xmlns="http://www.w3.org/2000/svg" xmlns:xlink="http://www.w3.org/1999/xlink" width="700" height="500" style="" viewBox="0 0 700 500"><rect x="0" y="0" width="700" height="500" style="fill: rgb(255, 255, 255); fill-opacity: 1;"/><defs id="defs-5d003f"><g class="clips"/><g class="gradients"/></defs><g class="bglayer"/><g class="layer-below"><g class="imagelayer"/><g class="shapelayer"/></g><g class="cartesianlayer"/><g class="polarlayer"/><g class="ternarylayer"/><g class="geolayer"/><g class="funnelarealayer"/><g class="pielayer"/><g class="treemaplayer"/><g class="sunburstlayer"><g class="trace sunburst" stroke-linejoin="round" style="opacity: 1;"><g class="slice"><path class="surface" d="M350,240A0,0 0,1,0 350,240A0,0 0,1,0 350,240ZM440,240A90,90 0,1,1 260,240A90,90 0,1,1 440,240.00000000000003Z" style="pointer-events: all; stroke-width: 1; fill: rgb(0, 0, 0); fill-opacity: 0; stroke: rgb(255, 255, 255); stroke-opacity: 1;"/><g class="slicetext"><text data-notex="1" class="slicetext" text-anchor="middle" x="0" y="0" style="font-family: 'Open Sans', verdana, arial, sans-serif; font-size: 12px; fill: rgb(42, 63, 95); fill-opacity: 1; white-space: pre;" transform="translate(349.96875,244.796875)">source</text></g></g><g class="slice"><path class="surface" d="M440,240L530,240A180,180 0,0,0 314.0522035074067,63.62609057083557L332.02610175370336,151.8130452854178A90,90 0,0,1 440,240Z" style="pointer-events: all; stroke-width: 1; fill: rgb(99, 110, 250); fill-opacity: 1; stroke: rgb(255, 255, 255); stroke-opacity: 1; opacity: 0.7;"/><g class="slicetext"><text data-notex="1" class="slicetext" text-anchor="middle" x="0" y="0" style="font-family: 'Open Sans', verdana, arial, sans-serif; font-size: 12px; fill: rgb(255, 255, 255); fill-opacity: 1; white-space: pre;" transform="translate(435.3657218582718,140.23896187317092)">iPhone</text></g></g><g class="slice"><path class="surface" d="M332.02610175370336,151.8130452854178L314.0522035074067,63.62609057083557A180,180 0,0,0 177.46607797687236,291.3034672445957L263.7330389884362,265.65173362229785A90,90 0,0,1 332.02610175370336,151.8130452854178Z" style="pointer-events: all; stroke-width: 1; fill: rgb(239, 85, 59); fill-opacity: 1; stroke: rgb(255, 255, 255); stroke-opacity: 1; opacity: 0.7;"/><g class="slicetext"><text data-notex="1" class="slicetext" text-anchor="middle" x="0" y="0" style="font-family: 'Open Sans', verdana, arial, sans-serif; font-size: 12px; fill: rgb(68, 68, 68); fill-opacity: 1; white-space: pre;" transform="translate(246.30589045701066,177.31903378051314)rotate(-59.039999999999964)">Twitter Web App</text></g></g><g class="slice"><path class="surface" d="M263.7330389884362,265.65173362229785L177.46607797687236,291.3034672445957A180,180 0,0,0 379.2746897350791,417.6034699574162L364.6373448675395,328.8017349787081A90,90 0,0,1 263.7330389884362,265.65173362229785Z" style="pointer-events: all; stroke-width: 1; fill: rgb(0, 204, 150); fill-opacity: 1; stroke: rgb(255, 255, 255); stroke-opacity: 1; opacity: 0.7;"/><g class="slicetext"><text data-notex="1" class="slicetext" text-anchor="middle" x="0" y="0" style="font-family: 'Open Sans', verdana, arial, sans-serif; font-size: 12px; fill: rgb(68, 68, 68); fill-opacity: 1; white-space: pre;" transform="translate(278.77942761859094,359.23339637148626)">Android</text></g></g><g class="slice"><path class="surface" d="M364.6373448675395,328.8017349787081L379.2746897350791,417.6034699574162A180,180 0,0,0 461.2147303562602,381.53191778459137L405.6073651781301,310.76595889229566A90,90 0,0,1 364.6373448675395,328.8017349787081Z" style="pointer-events: all; stroke-width: 1; fill: rgb(171, 99, 250); fill-opacity: 1; stroke: rgb(255, 255, 255); stroke-opacity: 1; opacity: 0.7;"/><g class="slicetext"><text data-notex="1" class="slicetext" text-anchor="middle" x="0" y="0" style="font-family: 'Open Sans', verdana, arial, sans-serif; font-size: 12px; fill: rgb(68, 68, 68); fill-opacity: 1; white-space: pre;" transform="translate(408.07939919584265,376.72988155762846)">iPad</text></g></g><g class="slice"><path class="surface" d="M405.6073651781301,310.76595889229566L461.2147303562602,381.53191778459137A180,180 0,0,0 514.7434110717652,312.5231584284593L432.3717055358826,276.26157921422964A90,90 0,0,1 405.6073651781301,310.76595889229566Z" style="pointer-events: all; stroke-width: 1; fill: rgb(255, 161, 90); fill-opacity: 1; stroke: rgb(255, 255, 255); stroke-opacity: 1; opacity: 0.7;"/><g class="slicetext"><text data-notex="1" class="slicetext" text-anchor="middle" x="0" y="0" style="font-family: 'Open Sans', verdana, arial, sans-serif; font-size: 12px; fill: rgb(68, 68, 68); fill-opacity: 1; white-space: pre;" transform="translate(454.5536635195436,325.8647100869229)scale(0.7848345443605429)rotate(37.799999999999955)">Twitter Web Client</text></g></g><g class="slice"><path class="surface" d="M432.3717055358826,276.26157921422964L514.7434110717652,312.5231584284593A180,180 0,0,0 518.1792096421902,304.1541381683851L434.0896048210951,272.07706908419254A90,90 0,0,1 432.3717055358826,276.26157921422964Z" style="pointer-events: all; stroke-width: 1; fill: rgb(25, 211, 243); fill-opacity: 1; stroke: rgb(255, 255, 255); stroke-opacity: 1; opacity: 0.7;"/><g class="slicetext"><text data-notex="1" class="slicetext" text-anchor="middle" x="0" y="0" style="font-family: 'Open Sans', verdana, arial, sans-serif; font-size: 12px; fill: rgb(68, 68, 68); fill-opacity: 1; white-space: pre;" transform="translate(499.87510137067403,304.084280806062)scale(0.49271182807016156)rotate(22.319999999999993)">TweetDeck</text></g></g><g class="slice"><path class="surface" d="M434.0896048210951,272.07706908419254L518.1792096421902,304.1541381683851A180,180 0,0,0 520.477694899054,297.76984976529764L435.238847449527,268.8849248826488A90,90 0,0,1 434.0896048210951,272.07706908419254Z" style="pointer-events: all; stroke-width: 1; fill: rgb(255, 102, 146); fill-opacity: 1; stroke: rgb(255, 255, 255); stroke-opacity: 1; opacity: 0.7;"/><g class="slicetext"><text data-notex="1" class="slicetext" text-anchor="middle" x="0" y="0" style="font-family: 'Open Sans', verdana, arial, sans-serif; font-size: 12px; fill: rgb(68, 68, 68); fill-opacity: 1; white-space: pre;" transform="translate(494.8293069983729,293.8056731633621)scale(0.32636766579245713)rotate(19.799999999999955)">Cheap Bots, Done Quick!</text></g></g><g class="slice"><path class="surface" d="M435.238847449527,268.8849248826488L520.477694899054,297.76984976529764A180,180 0,0,0 522.5339220231277,291.30346724459554L436.26696101156386,265.6517336222978A90,90 0,0,1 435.238847449527,268.8849248826488Z" style="pointer-events: all; stroke-width: 1; fill: rgb(182, 232, 128); fill-opacity: 1; stroke: rgb(255, 255, 255); stroke-opacity: 1; opacity: 0.7;"/><g class="slicetext"><text data-notex="1" class="slicetext" text-anchor="middle" x="0" y="0" style="font-family: 'Open Sans', verdana, arial, sans-serif; font-size: 12px; fill: rgb(68, 68, 68); fill-opacity: 1; white-space: pre;" transform="translate(505.39643391833454,291.28969957396816)scale(0.37262256660894877)rotate(17.63999999999993)">Hootsuite Inc.</text></g></g><g class="slice"><path class="surface" d="M436.26696101156386,265.6517336222978L522.5339220231277,291.30346724459554A180,180 0,0,0 524.3449690031537,284.76417968967365L437.17248450157683,262.38208984483686A90,90 0,0,1 436.26696101156386,265.6517336222978Z" style="pointer-events: all; stroke-width: 1; fill: rgb(255, 151, 255); fill-opacity: 1; stroke: rgb(255, 255, 255); stroke-opacity: 1; opacity: 0.7;"/><g class="slicetext"><text data-notex="1" class="slicetext" text-anchor="middle" x="0" y="0" style="font-family: 'Open Sans', verdana, arial, sans-serif; font-size: 12px; fill: rgb(68, 68, 68); fill-opacity: 1; white-space: pre;" transform="translate(510.6978662031348,286.4513186101415)scale(0.3910161226278959)rotate(15.479999999999961)">SocialFlow</text></g></g><g class="slice"><path class="surface" d="M437.17248450157683,262.38208984483686L524.3449690031537,284.76417968967365A180,180 0,0,0 525.414837101584,280.36873697088834L437.707418550792,260.18436848544417A90,90 0,0,1 437.17248450157683,262.38208984483686Z" style="pointer-events: all; stroke-width: 1; fill: rgb(254, 203, 82); fill-opacity: 1; stroke: rgb(255, 255, 255); stroke-opacity: 1; opacity: 0.7;"/><g class="slicetext"><text data-notex="1" class="slicetext" text-anchor="middle" x="0" y="0" style="font-family: 'Open Sans', verdana, arial, sans-serif; font-size: 12px; fill: rgb(68, 68, 68); fill-opacity: 1; white-space: pre;" transform="translate(519.1866010256973,282.5883833523544)scale(0.2851363160916928)rotate(13.679999999999893)">Buffer</text></g></g><g class="slice"><path class="surface" d="M437.707418550792,260.18436848544417L525.414837101584,280.36873697088834A180,180 0,0,0 525.9082622422749,278.16127978596955L437.95413112113744,259.0806398929848A90,90 0,0,1 437.707418550792,260.18436848544417Z" style="pointer-events: all; stroke-width: 1; fill: rgb(198, 202, 253); fill-opacity: 1; stroke: rgb(255, 255, 255); stroke-opacity: 1; opacity: 0.7;"/><g class="slicetext"><text data-notex="1" class="slicetext" text-anchor="middle" x="0" y="0" style="font-family: 'Open Sans', verdana, arial, sans-serif; font-size: 12px; fill: rgb(68, 68, 68); fill-opacity: 1; white-space: pre;" transform="translate(518.7064430652902,278.39854529163216)scale(0.14001066307220478)rotate(12.599999999999909)">Blog2Social APP</text></g></g><g class="slice"><path class="surface" d="M437.95413112113744,259.0806398929848L525.9082622422749,278.16127978596955A180,180 0,0,0 526.3739094291645,275.947796492593L438.18695471458227,257.97389824629647A90,90 0,0,1 437.95413112113744,259.0806398929848Z" style="pointer-events: all; stroke-width: 1; fill: rgb(247, 167, 153); fill-opacity: 1; stroke: rgb(255, 255, 255); stroke-opacity: 1; opacity: 0.7;"/><g class="slicetext"><text data-notex="1" class="slicetext" text-anchor="middle" x="0" y="0" style="font-family: 'Open Sans', verdana, arial, sans-serif; font-size: 12px; fill: rgb(68, 68, 68); fill-opacity: 1; white-space: pre;" transform="translate(520.8978544170752,276.6524522363372)scale(0.14299136660990105)rotate(11.879999999999882)">CoSchedule</text></g></g><g class="slice"><path class="surface" d="M438.18695471458227,257.97389824629647L526.3739094291645,275.947796492593A180,180 0,0,0 526.811705131164,273.7286366254301L438.405852565582,256.86431831271506A90,90 0,0,1 438.18695471458227,257.97389824629647Z" style="pointer-events: all; stroke-width: 1; fill: rgb(51, 255, 201); fill-opacity: 1; stroke: rgb(255, 255, 255); stroke-opacity: 1; opacity: 0.7;"/><g class="slicetext"><text data-notex="1" class="slicetext" text-anchor="middle" x="0" y="0" style="font-family: 'Open Sans', verdana, arial, sans-serif; font-size: 12px; fill: rgb(68, 68, 68); fill-opacity: 1; white-space: pre;" transform="translate(523.8608794762355,275.0199077900194)scale(0.1473915240751617)rotate(11.159999999999911)">IFTTT</text></g></g><g class="slice"><path class="surface" d="M438.405852565582,256.86431831271506L526.811705131164,273.7286366254301A180,180 0,0,0 527.2215802152571,271.50415061554935L438.61079010762853,255.75207530777467A90,90 0,0,1 438.405852565582,256.86431831271506Z" style="pointer-events: all; stroke-width: 1; fill: rgb(224, 198, 253); fill-opacity: 1; stroke: rgb(255, 255, 255); stroke-opacity: 1; opacity: 0.7;"/><g class="slicetext"><text data-notex="1" class="slicetext" text-anchor="middle" x="0" y="0" style="font-family: 'Open Sans', verdana, arial, sans-serif; font-size: 12px; fill: rgb(68, 68, 68); fill-opacity: 1; white-space: pre;" transform="translate(522.342002819596,272.4573178739735)scale(0.14397485951034983)rotate(10.439999999999884)">Instagram</text></g></g><g class="slice"><path class="surface" d="M438.61079010762853,255.75207530777467L527.2215802152571,271.50415061554935A180,180 0,0,0 527.6034699574163,269.2746897350787L438.80173497870817,254.63734486753935A90,90 0,0,1 438.61079010762853,255.75207530777467Z" style="pointer-events: all; stroke-width: 1; fill: rgb(255, 219, 192); fill-opacity: 1; stroke: rgb(255, 255, 255); stroke-opacity: 1; opacity: 0.7;"/><g class="slicetext"><text data-notex="1" class="slicetext" text-anchor="middle" x="0" y="0" style="font-family: 'Open Sans', verdana, arial, sans-serif; font-size: 12px; fill: rgb(68, 68, 68); fill-opacity: 1; white-space: pre;" transform="translate(522.7555934009335,270.29266489802296)scale(0.14402699718553594)rotate(9.719999999999914)">JJ_Ebooks</text></g></g><g class="slice"><path class="surface" d="M438.80173497870817,254.63734486753935L527.6034699574163,269.2746897350787A180,180 0,0,0 527.9573140528246,267.0406060417359L438.9786570264123,253.52030302086794A90,90 0,0,1 438.80173497870817,254.63734486753935Z" style="pointer-events: all; stroke-width: 1; fill: rgb(122, 230, 248); fill-opacity: 1; stroke: rgb(255, 255, 255); stroke-opacity: 1; opacity: 0.7;"/><g class="slicetext"><text data-notex="1" class="slicetext" text-anchor="middle" x="0" y="0" style="font-family: 'Open Sans', verdana, arial, sans-serif; font-size: 12px; fill: rgb(68, 68, 68); fill-opacity: 1; white-space: pre;" transform="translate(519.2290720142852,267.47058497691546)scale(0.13740552781099596)rotate(8.99999999999983)">Profound Bot Driver</text></g></g><g class="slice"><path class="surface" d="M438.9786570264123,253.52030302086794L527.9573140528246,267.0406060417359A180,180 0,0,0 528.2830566253973,264.8022523232345L439.14152831269865,252.40112616161724A90,90 0,0,1 438.9786570264123,253.52030302086794Z" style="pointer-events: all; stroke-width: 1; fill: rgb(255, 204, 219); fill-opacity: 1; stroke: rgb(255, 255, 255); stroke-opacity: 1; opacity: 0.7;"/><g class="slicetext"><text data-notex="1" class="slicetext" text-anchor="middle" x="0" y="0" style="font-family: 'Open Sans', verdana, arial, sans-serif; font-size: 12px; fill: rgb(68, 68, 68); fill-opacity: 1; white-space: pre;" transform="translate(521.973129493323,265.7128814939709)scale(0.14152307712849213)rotate(8.279999999999916)">Quote Reader</text></g></g><g class="slice"><path class="surface" d="M439.14152831269865,252.40112616161724L528.2830566253973,264.8022523232345A180,180 0,0,0 528.5806462366061,262.55998204157436L439.29032311830304,251.27999102078718A90,90 0,0,1 439.14152831269865,252.40112616161724Z" style="pointer-events: all; stroke-width: 1; fill: rgb(232, 248, 214); fill-opacity: 1; stroke: rgb(255, 255, 255); stroke-opacity: 1; opacity: 0.7;"/><g class="slicetext"><text data-notex="1" class="slicetext" text-anchor="middle" x="0" y="0" style="font-family: 'Open Sans', verdana, arial, sans-serif; font-size: 12px; fill: rgb(68, 68, 68); fill-opacity: 1; white-space: pre;" transform="translate(523.3050607702343,263.6936759668106)scale(0.1432083484149658)rotate(7.559999999999832)">Result Flow</text></g></g><g class="slice"><path class="surface" d="M439.29032311830304,251.27999102078718L528.5806462366061,262.55998204157436A180,180 0,0,0 528.8500358936016,260.3141492772263L439.4250179468008,250.15707463861315A90,90 0,0,1 439.29032311830304,251.27999102078718Z" style="pointer-events: all; stroke-width: 1; fill: rgb(255, 253, 255); fill-opacity: 1; stroke: rgb(255, 255, 255); stroke-opacity: 1; opacity: 0.7;"/><g class="slicetext"><text data-notex="1" class="slicetext" text-anchor="middle" x="0" y="0" style="font-family: 'Open Sans', verdana, arial, sans-serif; font-size: 12px; fill: rgb(68, 68, 68); fill-opacity: 1; white-space: pre;" transform="translate(521.5111840315611,261.2482363577445)scale(0.1397804434606168)rotate(6.839999999999861)">SocialNewsDesk</text></g></g><g class="slice"><path class="surface" d="M439.4250179468008,250.15707463861315L528.8500358936016,260.3141492772263A180,180 0,0,0 529.091183056634,258.0651086732182L439.545591528317,249.0325543366091A90,90 0,0,1 439.4250179468008,250.15707463861315Z" style="pointer-events: all; stroke-width: 1; fill: rgb(255, 233, 183); fill-opacity: 1; stroke: rgb(255, 255, 255); stroke-opacity: 1; opacity: 0.7;"/><g class="slicetext"><text data-notex="1" class="slicetext" text-anchor="middle" x="0" y="0" style="font-family: 'Open Sans', verdana, arial, sans-serif; font-size: 12px; fill: rgb(68, 68, 68); fill-opacity: 1; white-space: pre;" transform="translate(523.1272730125021,259.248099046162)scale(0.14198862443740387)rotate(6.119999999999834)">SocialOomph</text></g></g><g class="slice"><path class="surface" d="M439.545591528317,249.0325543366091L529.091183056634,258.0651086732182A180,180 0,0,0 529.3040496457711,255.8132153791333L439.65202482288555,247.90660768956667A90,90 0,0,1 439.545591528317,249.0325543366091Z" style="pointer-events: all; stroke-width: 1; fill: rgb(8, 25, 239); fill-opacity: 1; stroke: rgb(255, 255, 255); stroke-opacity: 1; opacity: 0.7;"/><g class="slicetext"><text data-notex="1" class="slicetext" text-anchor="middle" x="0" y="0" style="font-family: 'Open Sans', verdana, arial, sans-serif; font-size: 12px; fill: rgb(255, 255, 255); fill-opacity: 1; white-space: pre;" transform="translate(515.7545642106459,256.2901252475363)scale(0.12903121977507703)rotate(5.399999999999864)">TopBuzz:Breaking News &amp; Videos</text></g></g><g class="slice"><path class="surface" d="M439.65202482288555,247.90660768956667L529.3040496457711,255.8132153791333A180,180 0,0,0 529.4886020469105,253.5588249950274L439.74430102345525,246.7794124975137A90,90 0,0,1 439.65202482288555,247.90660768956667Z" style="pointer-events: all; stroke-width: 1; fill: rgb(181, 39, 15); fill-opacity: 1; stroke: rgb(255, 255, 255); stroke-opacity: 1; opacity: 0.7;"/><g class="slicetext"><text data-notex="1" class="slicetext" text-anchor="middle" x="0" y="0" style="font-family: 'Open Sans', verdana, arial, sans-serif; font-size: 12px; fill: rgb(255, 255, 255); fill-opacity: 1; white-space: pre;" transform="translate(523.6801808643481,254.90199703245221)scale(0.14210095696041958)rotate(4.679999999999836)">True Anthem</text></g></g><g class="slice"><path class="surface" d="M439.74430102345525,246.7794124975137L529.4886020469105,253.5588249950274A180,180 0,0,0 529.6448111170889,251.30229351527592L439.82240555854446,245.65114675763795A90,90 0,0,1 439.74430102345525,246.7794124975137Z" style="pointer-events: all; stroke-width: 1; fill: rgb(0, 102, 75); fill-opacity: 1; stroke: rgb(255, 255, 255); stroke-opacity: 1; opacity: 0.7;"/><g class="slicetext"><text data-notex="1" class="slicetext" text-anchor="middle" x="0" y="0" style="font-family: 'Open Sans', verdana, arial, sans-serif; font-size: 12px; fill: rgb(255, 255, 255); fill-opacity: 1; white-space: pre;" transform="translate(522.0888189467105,252.5819155686782)scale(0.13913601327389616)rotate(3.959999999999866)">Tweetbot for Mac</text></g></g><g class="slice"><path class="surface" d="M439.82240555854446,245.65114675763795L529.6448111170889,251.30229351527592A180,180 0,0,0 529.7726521890831,249.043977272358L439.8863260945416,244.521988636179A90,90 0,0,1 439.82240555854446,245.65114675763795Z" style="pointer-events: all; stroke-width: 1; fill: rgb(118, 8, 239); fill-opacity: 1; stroke: rgb(255, 255, 255); stroke-opacity: 1; opacity: 0.7;"/><g class="slicetext"><text data-notex="1" class="slicetext" text-anchor="middle" x="0" y="0" style="font-family: 'Open Sans', verdana, arial, sans-serif; font-size: 12px; fill: rgb(255, 255, 255); fill-opacity: 1; white-space: pre;" transform="translate(522.9455715007033,250.46491927863266)scale(0.14041670528767256)rotate(3.2399999999997817)">WordPress.com</text></g></g><g class="slice"><path class="surface" d="M439.8863260945416,244.521988636179L529.7726521890831,249.043977272358A180,180 0,0,0 529.8721050753061,246.78423288058767L439.93605253765304,243.39211644029385A90,90 0,0,1 439.8863260945416,244.521988636179Z" style="pointer-events: all; stroke-width: 1; fill: rgb(243, 105, 0); fill-opacity: 1; stroke: rgb(255, 255, 255); stroke-opacity: 1; opacity: 0.7;"/><g class="slicetext"><text data-notex="1" class="slicetext" text-anchor="middle" x="0" y="0" style="font-family: 'Open Sans', verdana, arial, sans-serif; font-size: 12px; fill: rgb(68, 68, 68); fill-opacity: 1; white-space: pre;" transform="translate(523.7941584544088,248.32920664887445)scale(0.1417067653605331)rotate(2.519999999999868)">auto_badkerr</text></g></g><g class="slice"><path class="surface" d="M439.93605253765304,243.39211644029385L529.8721050753061,246.78423288058767A180,180 0,0,0 529.9431540709941,244.5234171798002L439.97157703549703,242.26170858990008A90,90 0,0,1 439.93605253765304,243.39211644029385Z" style="pointer-events: all; stroke-width: 1; fill: rgb(8, 136, 158); fill-opacity: 1; stroke: rgb(255, 255, 255); stroke-opacity: 1; opacity: 0.7;"/><g class="slicetext"><text data-notex="1" class="slicetext" text-anchor="middle" x="0" y="0" style="font-family: 'Open Sans', verdana, arial, sans-serif; font-size: 12px; fill: rgb(255, 255, 255); fill-opacity: 1; white-space: pre;" transform="translate(525.6405009508389,246.21403469305497)scale(0.14467064126556814)rotate(1.799999999999784)">eClincher</text></g></g><g class="slice"><path class="surface" d="M439.97157703549703,242.26170858990008L529.9431540709941,244.5234171798002A180,180 0,0,0 529.9857879566869,242.26188717900288L439.99289397834343,241.13094358950144A90,90 0,0,1 439.97157703549703,242.26170858990008Z" style="pointer-events: all; stroke-width: 1; fill: rgb(255, 0, 73); fill-opacity: 1; stroke: rgb(255, 255, 255); stroke-opacity: 1; opacity: 0.7;"/><g class="slicetext"><text data-notex="1" class="slicetext" text-anchor="middle" x="0" y="0" style="font-family: 'Open Sans', verdana, arial, sans-serif; font-size: 12px; fill: rgb(255, 255, 255); fill-opacity: 1; white-space: pre;" transform="translate(521.7308003094531,243.89908352097925)scale(0.13790920571489929)rotate(1.0799999999998136)">radicalgoosebot3-2</text></g></g><g class="slice"><path class="surface" d="M439.99289397834343,241.13094358950144L529.9857879566869,242.26188717900288A180,180 0,0,0 530,239.9999999999994L440,239.99999999999972A90,90 0,0,1 439.99289397834343,241.13094358950144Z" style="pointer-events: all; stroke-width: 1; fill: rgb(132, 216, 42); fill-opacity: 1; stroke: rgb(255, 255, 255); stroke-opacity: 1; opacity: 0.7;"/><g class="slicetext"><text data-notex="1" class="slicetext" text-anchor="middle" x="0" y="0" style="font-family: 'Open Sans', verdana, arial, sans-serif; font-size: 12px; fill: rgb(68, 68, 68); fill-opacity: 1; white-space: pre;" transform="translate(522.5159579422804,241.75162880621224)scale(0.13918470471968117)rotate(0.35999999999978627)">webnowcompany</text></g></g></g></g><g class="glimages"/><defs id="topdefs-5d003f"><g class="clips"/></defs><g class="layer-above"><g class="imagelayer"/><g class="shapelayer"/></g><g class="infolayer"><g class="g-gtitle"/></g></svg>