<svg class="main-svg" xmlns="http://www.w3.org/2000/svg" xmlns:xlink="http://www.w3.org/1999/xlink" width="700" height="500" style="" viewBox="0 0 700 500"><rect x="0" y="0" width="700" height="500" style="fill: rgb(255, 255, 255); fill-opacity: 1;"/><defs id="defs-fee694"><g class="clips"/><g class="gradients"/></defs><g class="bglayer"/><g class="layer-below"><g class="imagelayer"/><g class="shapelayer"/></g><g class="cartesianlayer"/><g class="polarlayer"/><g class="ternarylayer"/><g class="geolayer"/><g class="funnelarealayer"/><g class="pielayer"/><g class="treemaplayer"/><g class="sunburstlayer"><g class="trace sunburst" stroke-linejoin="round" style="opacity: 1;"><g class="slice"><path class="surface" d="M350,240A0,0 0,1,0 350,240A0,0 0,1,0 350,240ZM440,240A90,90 0,1,1 260,240A90,90 0,1,1 440,240.00000000000003Z" style="pointer-events: all; stroke-width: 1; fill: rgb(0, 0, 0); fill-opacity: 0; stroke: rgb(255, 255, 255); stroke-opacity: 1;"/><g class="slicetext"><text data-notex="1" class="slicetext" text-anchor="middle" x="0" y="0" style="font-family: 'Open Sans', verdana, arial, sans-serif; font-size: 12px; fill: rgb(42, 63, 95); fill-opacity: 1; white-space: pre;" transform="translate(349.96875,244.796875)">source</text></g></g><g class="slice"><path class="surface" d="M440,240L530,240A180,180 0,0,0 230.11786386183473,105.73059382364721L290.05893193091737,172.8652969118236A90,90 0,0,1 440,240Z" style="pointer-events: all; stroke-width: 1; fill: rgb(99, 110, 250); fill-opacity: 1; stroke: rgb(255, 255, 255); stroke-opacity: 1; opacity: 0.7;"/><g class="slicetext"><text data-notex="1" class="slicetext" text-anchor="middle" x="0" y="0" style="font-family: 'Open Sans', verdana, arial, sans-serif; font-size: 12px; fill: rgb(255, 255, 255); fill-opacity: 1; white-space: pre;" transform="translate(405.5660625894071,121.58351070052714)">Android</text></g></g><g class="slice"><path class="surface" d="M290.05893193091737,172.8652969118236L230.11786386183473,105.73059382364721A180,180 0,0,0 259.34782370556303,395.50621509471034L304.6739118527815,317.75310754735517A90,90 0,0,1 290.05893193091737,172.8652969118236Z" style="pointer-events: all; stroke-width: 1; fill: rgb(239, 85, 59); fill-opacity: 1; stroke: rgb(255, 255, 255); stroke-opacity: 1; opacity: 0.7;"/><g class="slicetext"><text data-notex="1" class="slicetext" text-anchor="middle" x="0" y="0" style="font-family: 'Open Sans', verdana, arial, sans-serif; font-size: 12px; fill: rgb(68, 68, 68); fill-opacity: 1; white-space: pre;" transform="translate(215.65036270752447,258.345706504914)">iPhone</text></g></g><g class="slice"><path class="surface" d="M304.6739118527815,317.75310754735517L259.34782370556303,395.50621509471034A180,180 0,0,0 432.72437491186787,399.864560786438L391.36218745593396,319.932280393219A90,90 0,0,1 304.6739118527815,317.75310754735517Z" style="pointer-events: all; stroke-width: 1; fill: rgb(0, 204, 150); fill-opacity: 1; stroke: rgb(255, 255, 255); stroke-opacity: 1; opacity: 0.7;"/><g class="slicetext"><text data-notex="1" class="slicetext" text-anchor="middle" x="0" y="0" style="font-family: 'Open Sans', verdana, arial, sans-serif; font-size: 12px; fill: rgb(68, 68, 68); fill-opacity: 1; white-space: pre;" transform="translate(346.4566291521519,397.12243601557736)rotate(1.4400000000000546)">Twitter Web App</text></g></g><g class="slice"><path class="surface" d="M391.36218745593396,319.932280393219L432.72437491186787,399.864560786438A180,180 0,0,0 466.47007308250005,377.23965198206054L408.23503654125,308.61982599103027A90,90 0,0,1 391.36218745593396,319.932280393219Z" style="pointer-events: all; stroke-width: 1; fill: rgb(171, 99, 250); fill-opacity: 1; stroke: rgb(255, 255, 255); stroke-opacity: 1; opacity: 0.7;"/><g class="slicetext"><text data-notex="1" class="slicetext" text-anchor="middle" x="0" y="0" style="font-family: 'Open Sans', verdana, arial, sans-serif; font-size: 12px; fill: rgb(68, 68, 68); fill-opacity: 1; white-space: pre;" transform="translate(422.1852527995197,354.42685992344065)scale(0.7848345443605429)rotate(56.15999999999997)">Twitter Web Client</text></g></g><g class="slice"><path class="surface" d="M408.23503654125,308.61982599103027L466.47007308250005,377.23965198206054A180,180 0,0,0 487.23965198206065,356.4700730825L418.6198259910303,298.23503654125A90,90 0,0,1 408.23503654125,308.61982599103027Z" style="pointer-events: all; stroke-width: 1; fill: rgb(255, 161, 90); fill-opacity: 1; stroke: rgb(255, 255, 255); stroke-opacity: 1; opacity: 0.7;"/><g class="slicetext"><text data-notex="1" class="slicetext" text-anchor="middle" x="0" y="0" style="font-family: 'Open Sans', verdana, arial, sans-serif; font-size: 12px; fill: rgb(68, 68, 68); fill-opacity: 1; white-space: pre;" transform="translate(442.2347523490514,338.58843274398595)scale(0.9365952818762837)rotate(44.99999999999994)">WordPress.com</text></g></g><g class="slice"><path class="surface" d="M418.6198259910303,298.23503654125L487.23965198206065,356.4700730825A180,180 0,0,0 501.97902659036276,336.44882309621937L425.9895132951814,288.2244115481097A90,90 0,0,1 418.6198259910303,298.23503654125Z" style="pointer-events: all; stroke-width: 1; fill: rgb(25, 211, 243); fill-opacity: 1; stroke: rgb(255, 255, 255); stroke-opacity: 1; opacity: 0.7;"/><g class="slicetext"><text data-notex="1" class="slicetext" text-anchor="middle" x="0" y="0" style="font-family: 'Open Sans', verdana, arial, sans-serif; font-size: 12px; fill: rgb(68, 68, 68); fill-opacity: 1; white-space: pre;" transform="translate(463.702296201617,329.66267194483066)rotate(36.360000000000014)">TweetDeck</text></g></g><g class="slice"><path class="surface" d="M425.9895132951814,288.2244115481097L501.97902659036276,336.44882309621937A180,180 0,0,0 511.8929452819468,318.6808379971678L430.9464726409734,279.3404189985839A90,90 0,0,1 425.9895132951814,288.2244115481097Z" style="pointer-events: all; stroke-width: 1; fill: rgb(255, 102, 146); fill-opacity: 1; stroke: rgb(255, 255, 255); stroke-opacity: 1; opacity: 0.7;"/><g class="slicetext"><text data-notex="1" class="slicetext" text-anchor="middle" x="0" y="0" style="font-family: 'Open Sans', verdana, arial, sans-serif; font-size: 12px; fill: rgb(68, 68, 68); fill-opacity: 1; white-space: pre;" transform="translate(488.19328005580087,322.60010227656653)rotate(29.159999999999968)">dlvr.it</text></g></g><g class="slice"><path class="surface" d="M430.9464726409734,279.3404189985839L511.8929452819468,318.6808379971678A180,180 0,0,0 518.9720943776973,302.035726171413L434.48604718884866,271.0178630857065A90,90 0,0,1 430.9464726409734,279.3404189985839Z" style="pointer-events: all; stroke-width: 1; fill: rgb(182, 232, 128); fill-opacity: 1; stroke: rgb(255, 255, 255); stroke-opacity: 1; opacity: 0.7;"/><g class="slicetext"><text data-notex="1" class="slicetext" text-anchor="middle" x="0" y="0" style="font-family: 'Open Sans', verdana, arial, sans-serif; font-size: 12px; fill: rgb(68, 68, 68); fill-opacity: 1; white-space: pre;" transform="translate(497.4682902506852,307.8298381803403)scale(0.9806325571541924)rotate(23.039999999999964)">IFTTT</text></g></g><g class="slice"><path class="surface" d="M434.48604718884866,271.0178630857065L518.9720943776973,302.035726171413A180,180 0,0,0 522.5339220231276,291.3034672445957L436.2669610115638,265.65173362229785A90,90 0,0,1 434.48604718884866,271.0178630857065Z" style="pointer-events: all; stroke-width: 1; fill: rgb(255, 151, 255); fill-opacity: 1; stroke: rgb(255, 255, 255); stroke-opacity: 1; opacity: 0.7;"/><g class="slicetext"><text data-notex="1" class="slicetext" text-anchor="middle" x="0" y="0" style="font-family: 'Open Sans', verdana, arial, sans-serif; font-size: 12px; fill: rgb(68, 68, 68); fill-opacity: 1; white-space: pre;" transform="translate(507.7651983720545,295.66131944045406)scale(0.6533488881962035)rotate(18.360000000000014)">Buffer</text></g></g><g class="slice"><path class="surface" d="M436.2669610115638,265.65173362229785L522.5339220231276,291.3034672445957A180,180 0,0,0 524.3449690031537,284.7641796896738L437.17248450157683,262.3820898448369A90,90 0,0,1 436.2669610115638,265.65173362229785Z" style="pointer-events: all; stroke-width: 1; fill: rgb(254, 203, 82); fill-opacity: 1; stroke: rgb(255, 255, 255); stroke-opacity: 1; opacity: 0.7;"/><g class="slicetext"><text data-notex="1" class="slicetext" text-anchor="middle" x="0" y="0" style="font-family: 'Open Sans', verdana, arial, sans-serif; font-size: 12px; fill: rgb(68, 68, 68); fill-opacity: 1; white-space: pre;" transform="translate(514.1205673369453,287.48931071242055)scale(0.4091137018604564)rotate(15.479999999999961)">Paper.li</text></g></g><g class="slice"><path class="surface" d="M437.17248450157683,262.3820898448369L524.3449690031537,284.7641796896738A180,180 0,0,0 525.4148371015839,280.3687369708885L437.70741855079194,260.1843684854443A90,90 0,0,1 437.17248450157683,262.3820898448369Z" style="pointer-events: all; stroke-width: 1; fill: rgb(198, 202, 253); fill-opacity: 1; stroke: rgb(255, 255, 255); stroke-opacity: 1; opacity: 0.7;"/><g class="slicetext"><text data-notex="1" class="slicetext" text-anchor="middle" x="0" y="0" style="font-family: 'Open Sans', verdana, arial, sans-serif; font-size: 12px; fill: rgb(68, 68, 68); fill-opacity: 1; white-space: pre;" transform="translate(503.1468328489016,278.4079919094166)scale(0.22918074175249897)rotate(13.67999999999995)">Microsoft's Project Watchtower</text></g></g><g class="slice"><path class="surface" d="M437.70741855079194,260.1843684854443L525.4148371015839,280.3687369708885A180,180 0,0,0 526.3739094291644,275.9477964925931L438.1869547145822,257.9738982462966A90,90 0,0,1 437.70741855079194,260.1843684854443Z" style="pointer-events: all; stroke-width: 1; fill: rgb(247, 167, 153); fill-opacity: 1; stroke: rgb(255, 255, 255); stroke-opacity: 1; opacity: 0.7;"/><g class="slicetext"><text data-notex="1" class="slicetext" text-anchor="middle" x="0" y="0" style="font-family: 'Open Sans', verdana, arial, sans-serif; font-size: 12px; fill: rgb(68, 68, 68); fill-opacity: 1; white-space: pre;" transform="translate(516.9278710874667,277.5541901139407)scale(0.27322316926729445)rotate(12.239999999999952)">TTG Tweet</text></g></g><g class="slice"><path class="surface" d="M438.1869547145822,257.9738982462966L526.3739094291644,275.9477964925931A180,180 0,0,0 527.2215802152571,271.5041506155495L438.61079010762853,255.75207530777476A90,90 0,0,1 438.1869547145822,257.9738982462966Z" style="pointer-events: all; stroke-width: 1; fill: rgb(51, 255, 201); fill-opacity: 1; stroke: rgb(255, 255, 255); stroke-opacity: 1; opacity: 0.7;"/><g class="slicetext"><text data-notex="1" class="slicetext" text-anchor="middle" x="0" y="0" style="font-family: 'Open Sans', verdana, arial, sans-serif; font-size: 12px; fill: rgb(68, 68, 68); fill-opacity: 1; white-space: pre;" transform="translate(522.8517287249488,274.39377190404105)scale(0.29089344394304467)rotate(10.799999999999955)">iPad</text></g></g><g class="slice"><path class="surface" d="M438.61079010762853,255.75207530777476L527.2215802152571,271.5041506155495A180,180 0,0,0 527.6034699574163,269.2746897350789L438.80173497870817,254.63734486753944A90,90 0,0,1 438.61079010762853,255.75207530777476Z" style="pointer-events: all; stroke-width: 1; fill: rgb(224, 198, 253); fill-opacity: 1; stroke: rgb(255, 255, 255); stroke-opacity: 1; opacity: 0.7;"/><g class="slicetext"><text data-notex="1" class="slicetext" text-anchor="middle" x="0" y="0" style="font-family: 'Open Sans', verdana, arial, sans-serif; font-size: 12px; fill: rgb(68, 68, 68); fill-opacity: 1; white-space: pre;" transform="translate(520.5198241655411,269.89049955670384)scale(0.1400828724306879)rotate(9.719999999999914)">Alphabull Media</text></g></g><g class="slice"><path class="surface" d="M438.80173497870817,254.63734486753944L527.6034699574163,269.2746897350789A180,180 0,0,0 527.9573140528246,267.04060604173605L438.9786570264123,253.52030302086803A90,90 0,0,1 438.80173497870817,254.63734486753944Z" style="pointer-events: all; stroke-width: 1; fill: rgb(255, 219, 192); fill-opacity: 1; stroke: rgb(255, 255, 255); stroke-opacity: 1; opacity: 0.7;"/><g class="slicetext"><text data-notex="1" class="slicetext" text-anchor="middle" x="0" y="0" style="font-family: 'Open Sans', verdana, arial, sans-serif; font-size: 12px; fill: rgb(68, 68, 68); fill-opacity: 1; white-space: pre;" transform="translate(520.1081163553775,267.6169270493993)scale(0.13887054982742683)rotate(8.999999999999943)">BSPN twitter bots</text></g></g><g class="slice"><path class="surface" d="M438.9786570264123,253.52030302086803L527.9573140528246,267.04060604173605A180,180 0,0,0 528.2830566253972,264.80225232323465L439.1415283126986,252.40112616161733A90,90 0,0,1 438.9786570264123,253.52030302086803Z" style="pointer-events: all; stroke-width: 1; fill: rgb(122, 230, 248); fill-opacity: 1; stroke: rgb(255, 255, 255); stroke-opacity: 1; opacity: 0.7;"/><g class="slicetext"><text data-notex="1" class="slicetext" text-anchor="middle" x="0" y="0" style="font-family: 'Open Sans', verdana, arial, sans-serif; font-size: 12px; fill: rgb(68, 68, 68); fill-opacity: 1; white-space: pre;" transform="translate(523.7581712310927,265.9871749505912)scale(0.14451856827967138)rotate(8.279999999999916)">Exophase</text></g></g><g class="slice"><path class="surface" d="M439.1415283126986,252.40112616161733L528.2830566253972,264.80225232323465A180,180 0,0,0 528.5806462366061,262.55998204157453L439.29032311830304,251.27999102078726A90,90 0,0,1 439.1415283126986,252.40112616161733Z" style="pointer-events: all; stroke-width: 1; fill: rgb(255, 204, 219); fill-opacity: 1; stroke: rgb(255, 255, 255); stroke-opacity: 1; opacity: 0.7;"/><g class="slicetext"><text data-notex="1" class="slicetext" text-anchor="middle" x="0" y="0" style="font-family: 'Open Sans', verdana, arial, sans-serif; font-size: 12px; fill: rgb(68, 68, 68); fill-opacity: 1; white-space: pre;" transform="translate(524.0594872993812,263.80030540595453)scale(0.14455233464147543)rotate(7.559999999999945)">FS Poster</text></g></g><g class="slice"><path class="surface" d="M439.29032311830304,251.27999102078726L528.5806462366061,262.55998204157453A180,180 0,0,0 528.8500358936016,260.3141492772264L439.4250179468008,250.1570746386132A90,90 0,0,1 439.29032311830304,251.27999102078726Z" style="pointer-events: all; stroke-width: 1; fill: rgb(232, 248, 214); fill-opacity: 1; stroke: rgb(255, 255, 255); stroke-opacity: 1; opacity: 0.7;"/><g class="slicetext"><text data-notex="1" class="slicetext" text-anchor="middle" x="0" y="0" style="font-family: 'Open Sans', verdana, arial, sans-serif; font-size: 12px; fill: rgb(68, 68, 68); fill-opacity: 1; white-space: pre;" transform="translate(522.1935139033723,261.3352155402152)scale(0.14084292002177357)rotate(6.839999999999861)">Johnnydorkbot</text></g></g><g class="slice"><path class="surface" d="M439.4250179468008,250.1570746386132L528.8500358936016,260.3141492772264A180,180 0,0,0 529.091183056634,258.0651086732184L439.545591528317,249.0325543366092A90,90 0,0,1 439.4250179468008,250.1570746386132Z" style="pointer-events: all; stroke-width: 1; fill: rgb(255, 253, 255); fill-opacity: 1; stroke: rgb(255, 255, 255); stroke-opacity: 1; opacity: 0.7;"/><g class="slicetext"><text data-notex="1" class="slicetext" text-anchor="middle" x="0" y="0" style="font-family: 'Open Sans', verdana, arial, sans-serif; font-size: 12px; fill: rgb(68, 68, 68); fill-opacity: 1; white-space: pre;" transform="translate(521.6847073314809,259.08168913836107)scale(0.13955622616038144)rotate(6.119999999999948)">NeoGAF Threads</text></g></g><g class="slice"><path class="surface" d="M439.545591528317,249.0325543366092L529.091183056634,258.0651086732184A180,180 0,0,0 529.3040496457711,255.81321537913348L439.65202482288555,247.90660768956673A90,90 0,0,1 439.545591528317,249.0325543366092Z" style="pointer-events: all; stroke-width: 1; fill: rgb(255, 233, 183); fill-opacity: 1; stroke: rgb(255, 255, 255); stroke-opacity: 1; opacity: 0.7;"/><g class="slicetext"><text data-notex="1" class="slicetext" text-anchor="middle" x="0" y="0" style="font-family: 'Open Sans', verdana, arial, sans-serif; font-size: 12px; fill: rgb(68, 68, 68); fill-opacity: 1; white-space: pre;" transform="translate(522.2499048543647,256.9577307128342)scale(0.14015868426021408)rotate(5.399999999999864)">PlayStation(R)4</text></g></g><g class="slice"><path class="surface" d="M439.65202482288555,247.90660768956673L529.3040496457711,255.81321537913348A180,180 0,0,0 529.4886020469105,253.55882499502758L439.74430102345525,246.7794124975138A90,90 0,0,1 439.65202482288555,247.90660768956673Z" style="pointer-events: all; stroke-width: 1; fill: rgb(8, 25, 239); fill-opacity: 1; stroke: rgb(255, 255, 255); stroke-opacity: 1; opacity: 0.7;"/><g class="slicetext"><text data-notex="1" class="slicetext" text-anchor="middle" x="0" y="0" style="font-family: 'Open Sans', verdana, arial, sans-serif; font-size: 12px; fill: rgb(255, 255, 255); fill-opacity: 1; white-space: pre;" transform="translate(523.7381152584143,254.90777108909336)scale(0.14231524290236344)rotate(4.679999999999893)">Real Specific</text></g></g><g class="slice"><path class="surface" d="M439.74430102345525,246.7794124975138L529.4886020469105,253.55882499502758A180,180 0,0,0 529.6448111170889,251.30229351527606L439.82240555854446,245.65114675763803A90,90 0,0,1 439.74430102345525,246.7794124975138Z" style="pointer-events: all; stroke-width: 1; fill: rgb(181, 39, 15); fill-opacity: 1; stroke: rgb(255, 255, 255); stroke-opacity: 1; opacity: 0.7;"/><g class="slicetext"><text data-notex="1" class="slicetext" text-anchor="middle" x="0" y="0" style="font-family: 'Open Sans', verdana, arial, sans-serif; font-size: 12px; fill: rgb(255, 255, 255); fill-opacity: 1; white-space: pre;" transform="translate(521.8648388116166,252.56495921606788)scale(0.13883419270588046)rotate(3.959999999999866)">Revive Social App</text></g></g><g class="slice"><path class="surface" d="M439.82240555854446,245.65114675763803L529.6448111170889,251.30229351527606A180,180 0,0,0 529.7726521890831,249.04397727235815L439.8863260945416,244.5219886361791A90,90 0,0,1 439.82240555854446,245.65114675763803Z" style="pointer-events: all; stroke-width: 1; fill: rgb(0, 102, 75); fill-opacity: 1; stroke: rgb(255, 255, 255); stroke-opacity: 1; opacity: 0.7;"/><g class="slicetext"><text data-notex="1" class="slicetext" text-anchor="middle" x="0" y="0" style="font-family: 'Open Sans', verdana, arial, sans-serif; font-size: 12px; fill: rgb(255, 255, 255); fill-opacity: 1; white-space: pre;" transform="translate(526.0446746057814,250.66580601728722)scale(0.1457136674893165)rotate(3.2399999999998954)">Sprinklr</text></g></g><g class="slice"><path class="surface" d="M439.8863260945416,244.5219886361791L529.7726521890831,249.04397727235815A180,180 0,0,0 529.8721050753061,246.78423288058784L439.93605253765304,243.39211644029393A90,90 0,0,1 439.8863260945416,244.5219886361791Z" style="pointer-events: all; stroke-width: 1; fill: rgb(118, 8, 239); fill-opacity: 1; stroke: rgb(255, 255, 255); stroke-opacity: 1; opacity: 0.7;"/><g class="slicetext"><text data-notex="1" class="slicetext" text-anchor="middle" x="0" y="0" style="font-family: 'Open Sans', verdana, arial, sans-serif; font-size: 12px; fill: rgb(255, 255, 255); fill-opacity: 1; white-space: pre;" transform="translate(523.9171284464725,248.33534670118007)scale(0.14185839643563602)rotate(2.519999999999868)">Sprout Social</text></g></g><g class="slice"><path class="surface" d="M439.93605253765304,243.39211644029393L529.8721050753061,246.78423288058784A180,180 0,0,0 529.9431540709941,244.52341717980036L439.97157703549703,242.26170858990017A90,90 0,0,1 439.93605253765304,243.39211644029393Z" style="pointer-events: all; stroke-width: 1; fill: rgb(243, 105, 0); fill-opacity: 1; stroke: rgb(255, 255, 255); stroke-opacity: 1; opacity: 0.7;"/><g class="slicetext"><text data-notex="1" class="slicetext" text-anchor="middle" x="0" y="0" style="font-family: 'Open Sans', verdana, arial, sans-serif; font-size: 12px; fill: rgb(68, 68, 68); fill-opacity: 1; white-space: pre;" transform="translate(522.4407598287213,246.08691675187814)scale(0.13913601327389616)rotate(1.7999999999998977)">Tweetbot for Mac</text></g></g><g class="slice"><path class="surface" d="M439.97157703549703,242.26170858990017L529.9431540709941,244.52341717980036A180,180 0,0,0 529.9857879566869,242.26188717900305L439.99289397834343,241.13094358950153A90,90 0,0,1 439.97157703549703,242.26170858990017Z" style="pointer-events: all; stroke-width: 1; fill: rgb(8, 136, 158); fill-opacity: 1; stroke: rgb(255, 255, 255); stroke-opacity: 1; opacity: 0.7;"/><g class="slicetext"><text data-notex="1" class="slicetext" text-anchor="middle" x="0" y="0" style="font-family: 'Open Sans', verdana, arial, sans-serif; font-size: 12px; fill: rgb(255, 255, 255); fill-opacity: 1; white-space: pre;" transform="translate(525.4996378099692,244.00017317085303)scale(0.1441705706894973)rotate(1.0799999999998136)">Twibble.io</text></g></g><g class="slice"><path class="surface" d="M439.99289397834343,241.13094358950153L529.9857879566869,242.26188717900305A180,180 0,0,0 530,239.99999999999957L440,239.99999999999977A90,90 0,0,1 439.99289397834343,241.13094358950153Z" style="pointer-events: all; stroke-width: 1; fill: rgb(255, 0, 73); fill-opacity: 1; stroke: rgb(255, 255, 255); stroke-opacity: 1; opacity: 0.7;"/><g class="slicetext"><text data-notex="1" class="slicetext" text-anchor="middle" x="0" y="0" style="font-family: 'Open Sans', verdana, arial, sans-serif; font-size: 12px; fill: rgb(255, 255, 255); fill-opacity: 1; white-space: pre;" transform="translate(522.7878080805006,241.7557572899119)scale(0.1396892683472809)rotate(0.35999999999989996)">sakuraiebooksbr</text></g></g></g></g><g class="glimages"/><defs id="topdefs-fee694"><g class="clips"/></defs><g class="layer-above"><g class="imagelayer"/><g class="shapelayer"/></g><g class="infolayer"><g class="g-gtitle"/></g></svg>