<svg class="main-svg" xmlns="http://www.w3.org/2000/svg" xmlns:xlink="http://www.w3.org/1999/xlink" width="700" height="500" style="" viewBox="0 0 700 500"><rect x="0" y="0" width="700" height="500" style="fill: rgb(255, 255, 255); fill-opacity: 1;"/><defs id="defs-5c9f10"><g class="clips"/><g class="gradients"/></defs><g class="bglayer"/><g class="layer-below"><g class="imagelayer"/><g class="shapelayer"/></g><g class="cartesianlayer"/><g class="polarlayer"/><g class="ternarylayer"/><g class="geolayer"/><g class="funnelarealayer"/><g class="pielayer"/><g class="treemaplayer"/><g class="sunburstlayer"><g class="trace sunburst" stroke-linejoin="round" style="opacity: 1;"><g class="slice"><path class="surface" d="M350,240A0,0 0,1,0 350,240A0,0 0,1,0 350,240ZM440,240A90,90 0,1,1 260,240A90,90 0,1,1 440,240.00000000000003Z" style="pointer-events: all; stroke-width: 1; fill: rgb(0, 0, 0); fill-opacity: 0; stroke: rgb(255, 255, 255); stroke-opacity: 1;"/><g class="slicetext"><text data-notex="1" class="slicetext" text-anchor="middle" x="0" y="0" style="font-family: 'Open Sans', verdana, arial, sans-serif; font-size: 12px; fill: rgb(42, 63, 95); fill-opacity: 1; white-space: pre;" transform="translate(349.96875,244.796875)">source</text></g></g><g class="slice"><path class="surface" d="M440,240L530,240A180,180 0,0,0 171.41935376339399,217.44001795842527L260.70967688169696,228.72000897921262A90,90 0,0,1 440,240Z" style="pointer-events: all; stroke-width: 1; fill: rgb(99, 110, 250); fill-opacity: 1; stroke: rgb(255, 255, 255); stroke-opacity: 1; opacity: 0.7;"/><g class="slicetext"><text data-notex="1" class="slicetext" text-anchor="middle" x="0" y="0" style="font-family: 'Open Sans', verdana, arial, sans-serif; font-size: 12px; fill: rgb(255, 255, 255); fill-opacity: 1; white-space: pre;" transform="translate(358.4454701364573,110.06326666218334)">iPhone</text></g></g><g class="slice"><path class="surface" d="M260.70967688169696,228.72000897921262L171.41935376339399,217.44001795842527A180,180 0,0,0 464.7363181547642,378.69238369964205L407.3681590773821,309.346191849821A90,90 0,0,1 260.70967688169696,228.72000897921262Z" style="pointer-events: all; stroke-width: 1; fill: rgb(239, 85, 59); fill-opacity: 1; stroke: rgb(255, 255, 255); stroke-opacity: 1; opacity: 0.7;"/><g class="slicetext"><text data-notex="1" class="slicetext" text-anchor="middle" x="0" y="0" style="font-family: 'Open Sans', verdana, arial, sans-serif; font-size: 12px; fill: rgb(68, 68, 68); fill-opacity: 1; white-space: pre;" transform="translate(285.36169149626846,363.0982768059216)">Android</text></g></g><g class="slice"><path class="surface" d="M407.3681590773821,309.346191849821L464.7363181547642,378.69238369964205A180,180 0,0,0 521.8756180543958,293.46748468386613L435.9378090271979,266.73374234193307A90,90 0,0,1 407.3681590773821,309.346191849821Z" style="pointer-events: all; stroke-width: 1; fill: rgb(0, 204, 150); fill-opacity: 1; stroke: rgb(255, 255, 255); stroke-opacity: 1; opacity: 0.7;"/><g class="slicetext"><text data-notex="1" class="slicetext" text-anchor="middle" x="0" y="0" style="font-family: 'Open Sans', verdana, arial, sans-serif; font-size: 12px; fill: rgb(68, 68, 68); fill-opacity: 1; white-space: pre;" transform="translate(492.48903109159767,335.0796992484916)scale(0.9251907430635989)rotate(-56.16000000000008)">Twitter Web App</text></g></g><g class="slice"><path class="surface" d="M435.9378090271979,266.73374234193307L521.8756180543958,293.46748468386613A180,180 0,0,0 525.4148371015839,280.3687369708885L437.70741855079194,260.1843684854443A90,90 0,0,1 435.9378090271979,266.73374234193307Z" style="pointer-events: all; stroke-width: 1; fill: rgb(171, 99, 250); fill-opacity: 1; stroke: rgb(255, 255, 255); stroke-opacity: 1; opacity: 0.7;"/><g class="slicetext"><text data-notex="1" class="slicetext" text-anchor="middle" x="0" y="0" style="font-family: 'Open Sans', verdana, arial, sans-serif; font-size: 12px; fill: rgb(68, 68, 68); fill-opacity: 1; white-space: pre;" transform="translate(512.6350984804392,287.94527850332446)scale(0.8054217532484589)rotate(15.120000000000005)">iPad</text></g></g><g class="slice"><path class="surface" d="M437.70741855079194,260.1843684854443L525.4148371015839,280.3687369708885A180,180 0,0,0 527.6034699574163,269.274689735079L438.80173497870817,254.6373448675395A90,90 0,0,1 437.70741855079194,260.1843684854443Z" style="pointer-events: all; stroke-width: 1; fill: rgb(255, 161, 90); fill-opacity: 1; stroke: rgb(255, 255, 255); stroke-opacity: 1; opacity: 0.7;"/><g class="slicetext"><text data-notex="1" class="slicetext" text-anchor="middle" x="0" y="0" style="font-family: 'Open Sans', verdana, arial, sans-serif; font-size: 12px; fill: rgb(68, 68, 68); fill-opacity: 1; white-space: pre;" transform="translate(513.497385810638,275.44919085555233)scale(0.6533488881962035)rotate(11.159999999999968)">Buffer</text></g></g><g class="slice"><path class="surface" d="M438.80173497870817,254.6373448675395L527.6034699574163,269.274689735079A180,180 0,0,0 529.091183056634,258.06510867321873L439.545591528317,249.03255433660937A90,90 0,0,1 438.80173497870817,254.6373448675395Z" style="pointer-events: all; stroke-width: 1; fill: rgb(25, 211, 243); fill-opacity: 1; stroke: rgb(255, 255, 255); stroke-opacity: 1; opacity: 0.7;"/><g class="slicetext"><text data-notex="1" class="slicetext" text-anchor="middle" x="0" y="0" style="font-family: 'Open Sans', verdana, arial, sans-serif; font-size: 12px; fill: rgb(68, 68, 68); fill-opacity: 1; white-space: pre;" transform="translate(499.2029233377885,262.2781797606776)scale(0.5117378750679994)rotate(7.560000000000002)">Twitter Web Client</text></g></g><g class="slice"><path class="surface" d="M439.545591528317,249.03255433660937L529.091183056634,258.06510867321873A180,180 0,0,0 529.6448111170889,251.30229351527638L439.82240555854446,245.6511467576382A90,90 0,0,1 439.545591528317,249.03255433660937Z" style="pointer-events: all; stroke-width: 1; fill: rgb(255, 102, 146); fill-opacity: 1; stroke: rgb(255, 255, 255); stroke-opacity: 1; opacity: 0.7;"/><g class="slicetext"><text data-notex="1" class="slicetext" text-anchor="middle" x="0" y="0" style="font-family: 'Open Sans', verdana, arial, sans-serif; font-size: 12px; fill: rgb(68, 68, 68); fill-opacity: 1; white-space: pre;" transform="translate(515.9059944608314,255.4481190352051)scale(0.3878029641631706)rotate(4.680000000000007)">TweetDeck</text></g></g><g class="slice"><path class="surface" d="M439.82240555854446,245.6511467576382L529.6448111170889,251.30229351527638A180,180 0,0,0 529.8721050753061,246.78423288058815L439.93605253765304,243.39211644029407A90,90 0,0,1 439.82240555854446,245.6511467576382Z" style="pointer-events: all; stroke-width: 1; fill: rgb(182, 232, 128); fill-opacity: 1; stroke: rgb(255, 255, 255); stroke-opacity: 1; opacity: 0.7;"/><g class="slicetext"><text data-notex="1" class="slicetext" text-anchor="middle" x="0" y="0" style="font-family: 'Open Sans', verdana, arial, sans-serif; font-size: 12px; fill: rgb(68, 68, 68); fill-opacity: 1; white-space: pre;" transform="translate(520.8130911198673,249.9055157858529)scale(0.27322316926729445)rotate(2.8799999999999955)">TTG Tweet</text></g></g><g class="slice"><path class="surface" d="M439.93605253765304,243.39211644029407L529.8721050753061,246.78423288058815A180,180 0,0,0 529.943154070994,244.52341717980067L439.971577035497,242.26170858990034A90,90 0,0,1 439.93605253765304,243.39211644029407Z" style="pointer-events: all; stroke-width: 1; fill: rgb(255, 151, 255); fill-opacity: 1; stroke: rgb(255, 255, 255); stroke-opacity: 1; opacity: 0.7;"/><g class="slicetext"><text data-notex="1" class="slicetext" text-anchor="middle" x="0" y="0" style="font-family: 'Open Sans', verdana, arial, sans-serif; font-size: 12px; fill: rgb(68, 68, 68); fill-opacity: 1; white-space: pre;" transform="translate(523.6902817921748,246.13667529773363)scale(0.14132192799121693)rotate(1.8000000000000114)">Hootsuite Inc.</text></g></g><g class="slice"><path class="surface" d="M439.971577035497,242.26170858990034L529.943154070994,244.52341717980067A180,180 0,0,0 529.9857879566869,242.26188717900337L439.99289397834343,241.1309435895017A90,90 0,0,1 439.971577035497,242.26170858990034Z" style="pointer-events: all; stroke-width: 1; fill: rgb(254, 203, 82); fill-opacity: 1; stroke: rgb(255, 255, 255); stroke-opacity: 1; opacity: 0.7;"/><g class="slicetext"><text data-notex="1" class="slicetext" text-anchor="middle" x="0" y="0" style="font-family: 'Open Sans', verdana, arial, sans-serif; font-size: 12px; fill: rgb(68, 68, 68); fill-opacity: 1; white-space: pre;" transform="translate(524.2045607636413,243.9657770169111)scale(0.14209007830375017)rotate(1.0799999999999272)">Informassive</text></g></g><g class="slice"><path class="surface" d="M439.99289397834343,241.1309435895017L529.9857879566869,242.26188717900337A180,180 0,0,0 530,239.9999999999999L440,239.99999999999994A90,90 0,0,1 439.99289397834343,241.1309435895017Z" style="pointer-events: all; stroke-width: 1; fill: rgb(198, 202, 253); fill-opacity: 1; stroke: rgb(255, 255, 255); stroke-opacity: 1; opacity: 0.7;"/><g class="slicetext"><text data-notex="1" class="slicetext" text-anchor="middle" x="0" y="0" style="font-family: 'Open Sans', verdana, arial, sans-serif; font-size: 12px; fill: rgb(68, 68, 68); fill-opacity: 1; white-space: pre;" transform="translate(525.6660342092014,241.79685505334197)scale(0.14448669230829853)rotate(0.3599999999999568)">Nlife CMS</text></g></g></g></g><g class="glimages"/><defs id="topdefs-5c9f10"><g class="clips"/></defs><g class="layer-above"><g class="imagelayer"/><g class="shapelayer"/></g><g class="infolayer"><g class="g-gtitle"/></g></svg>